<svg width="572" height="351" viewBox="0 0 572 351" fill="none" xmlns="http://www.w3.org/2000/svg">
<rect x="0.5" y="0.5" width="571" height="350" rx="7.5" fill="white" stroke="#CECDCD"/>
<path d="M61.0279 309.326C62.2378 308.354 63.1857 307.559 63.8716 306.94C64.5575 306.311 65.1339 305.658 65.6007 304.982C66.077 304.296 66.3152 303.624 66.3152 302.967C66.3152 302.348 66.1628 301.862 65.8579 301.51C65.5626 301.148 65.0815 300.967 64.4146 300.967C63.7668 300.967 63.2619 301.171 62.8999 301.581C62.5474 301.981 62.3568 302.519 62.3283 303.196H61.0707C61.1088 302.129 61.4328 301.305 62.0425 300.724C62.6522 300.142 63.4381 299.852 64.4003 299.852C65.3816 299.852 66.158 300.123 66.7296 300.666C67.3107 301.209 67.6013 301.957 67.6013 302.91C67.6013 303.701 67.3631 304.472 66.8868 305.225C66.42 305.968 65.8865 306.625 65.2863 307.197C64.6861 307.759 63.9192 308.416 62.9856 309.169H67.9014V310.255H61.0279V309.326ZM79.7221 300.481V310.369H78.4217V302.996L75.135 310.369H74.2204L70.9194 302.981V310.369H69.619V300.481H71.0194L74.6777 308.655L78.3359 300.481H79.7221Z" fill="black"/>
<path d="M21.0157 265.027C22.2256 264.055 23.1735 263.26 23.8594 262.641C24.5453 262.012 25.1217 261.359 25.5885 260.683C26.0648 259.997 26.303 259.325 26.303 258.668C26.303 258.049 26.1506 257.563 25.8457 257.21C25.5504 256.848 25.0693 256.667 24.4024 256.667C23.7546 256.667 23.2497 256.872 22.8877 257.282C22.5352 257.682 22.3446 258.22 22.3161 258.897H21.0585C21.0966 257.83 21.4205 257.006 22.0303 256.424C22.64 255.843 23.4259 255.553 24.3881 255.553C25.3694 255.553 26.1458 255.824 26.7174 256.367C27.2985 256.91 27.5891 257.658 27.5891 258.611C27.5891 259.401 27.3509 260.173 26.8746 260.926C26.4078 261.669 25.8743 262.326 25.2741 262.898C24.6739 263.46 23.907 264.117 22.9734 264.87H27.8892V265.956H21.0157V265.027ZM29.3924 260.797C29.3924 259.159 29.6592 257.882 30.1927 256.967C30.7262 256.043 31.6598 255.581 32.9935 255.581C34.3177 255.581 35.2466 256.043 35.7801 256.967C36.3136 257.882 36.5803 259.159 36.5803 260.797C36.5803 262.464 36.3136 263.76 35.7801 264.684C35.2466 265.608 34.3177 266.07 32.9935 266.07C31.6598 266.07 30.7262 265.608 30.1927 264.684C29.6592 263.76 29.3924 262.464 29.3924 260.797ZM35.2942 260.797C35.2942 259.968 35.2371 259.268 35.1227 258.697C35.018 258.115 34.7941 257.649 34.4511 257.296C34.1177 256.944 33.6318 256.767 32.9935 256.767C32.3457 256.767 31.8503 256.944 31.5074 257.296C31.1739 257.649 30.95 258.115 30.8357 258.697C30.7309 259.268 30.6785 259.968 30.6785 260.797C30.6785 261.655 30.7309 262.374 30.8357 262.955C30.95 263.536 31.1739 264.003 31.5074 264.355C31.8503 264.708 32.3457 264.884 32.9935 264.884C33.6318 264.884 34.1177 264.708 34.4511 264.355C34.7941 264.003 35.018 263.536 35.1227 262.955C35.2371 262.374 35.2942 261.655 35.2942 260.797ZM38.2084 265.027C39.4183 264.055 40.3662 263.26 41.0521 262.641C41.738 262.012 42.3144 261.359 42.7812 260.683C43.2576 259.997 43.4957 259.325 43.4957 258.668C43.4957 258.049 43.3433 257.563 43.0384 257.21C42.7431 256.848 42.262 256.667 41.5951 256.667C40.9473 256.667 40.4424 256.872 40.0804 257.282C39.7279 257.682 39.5374 258.22 39.5088 258.897H38.2513C38.2894 257.83 38.6133 257.006 39.223 256.424C39.8327 255.843 40.6187 255.553 41.5809 255.553C42.5621 255.553 43.3385 255.824 43.9101 256.367C44.4913 256.91 44.7818 257.658 44.7818 258.611C44.7818 259.401 44.5437 260.173 44.0673 260.926C43.6005 261.669 43.067 262.326 42.4668 262.898C41.8667 263.46 41.0998 264.117 40.1661 264.87H45.0819V265.956H38.2084V265.027ZM46.5852 260.797C46.5852 259.159 46.8519 257.882 47.3854 256.967C47.9189 256.043 48.8525 255.581 50.1863 255.581C51.5105 255.581 52.4393 256.043 52.9728 256.967C53.5063 257.882 53.7731 259.159 53.7731 260.797C53.7731 262.464 53.5063 263.76 52.9728 264.684C52.4393 265.608 51.5105 266.07 50.1863 266.07C48.8525 266.07 47.9189 265.608 47.3854 264.684C46.8519 263.76 46.5852 262.464 46.5852 260.797ZM52.487 260.797C52.487 259.968 52.4298 259.268 52.3155 258.697C52.2107 258.115 51.9868 257.649 51.6439 257.296C51.3104 256.944 50.8246 256.767 50.1863 256.767C49.5384 256.767 49.0431 256.944 48.7001 257.296C48.3667 257.649 48.1428 258.115 48.0285 258.697C47.9237 259.268 47.8713 259.968 47.8713 260.797C47.8713 261.655 47.9237 262.374 48.0285 262.955C48.1428 263.536 48.3667 264.003 48.7001 264.355C49.0431 264.708 49.5384 264.884 50.1863 264.884C50.8246 264.884 51.3104 264.708 51.6439 264.355C51.9868 264.003 52.2107 263.536 52.3155 262.955C52.4298 262.374 52.487 261.655 52.487 260.797Z" fill="black"/>
<path d="M21.0157 212.154C22.2256 211.182 23.1735 210.386 23.8594 209.767C24.5453 209.138 25.1217 208.486 25.5885 207.809C26.0648 207.123 26.303 206.452 26.303 205.795C26.303 205.175 26.1506 204.689 25.8457 204.337C25.5504 203.975 25.0693 203.794 24.4024 203.794C23.7546 203.794 23.2497 203.999 22.8877 204.408C22.5352 204.809 22.3446 205.347 22.3161 206.023H21.0585C21.0966 204.956 21.4205 204.132 22.0303 203.551C22.64 202.97 23.4259 202.679 24.3881 202.679C25.3694 202.679 26.1458 202.951 26.7174 203.494C27.2985 204.037 27.5891 204.785 27.5891 205.737C27.5891 206.528 27.3509 207.3 26.8746 208.052C26.4078 208.795 25.8743 209.453 25.2741 210.024C24.6739 210.586 23.907 211.244 22.9734 211.996H27.8892V213.082H21.0157V212.154ZM29.3924 207.924C29.3924 206.285 29.6592 205.009 30.1927 204.094C30.7262 203.17 31.6598 202.708 32.9935 202.708C34.3177 202.708 35.2466 203.17 35.7801 204.094C36.3136 205.009 36.5803 206.285 36.5803 207.924C36.5803 209.591 36.3136 210.887 35.7801 211.811C35.2466 212.735 34.3177 213.197 32.9935 213.197C31.6598 213.197 30.7262 212.735 30.1927 211.811C29.6592 210.887 29.3924 209.591 29.3924 207.924ZM35.2942 207.924C35.2942 207.095 35.2371 206.395 35.1227 205.823C35.018 205.242 34.7941 204.775 34.4511 204.423C34.1177 204.07 33.6318 203.894 32.9935 203.894C32.3457 203.894 31.8503 204.07 31.5074 204.423C31.1739 204.775 30.95 205.242 30.8357 205.823C30.7309 206.395 30.6785 207.095 30.6785 207.924C30.6785 208.781 30.7309 209.5 30.8357 210.082C30.95 210.663 31.1739 211.129 31.5074 211.482C31.8503 211.834 32.3457 212.011 32.9935 212.011C33.6318 212.011 34.1177 211.834 34.4511 211.482C34.7941 211.129 35.018 210.663 35.1227 210.082C35.2371 209.5 35.2942 208.781 35.2942 207.924ZM38.2084 212.154C39.4183 211.182 40.3662 210.386 41.0521 209.767C41.738 209.138 42.3144 208.486 42.7812 207.809C43.2576 207.123 43.4957 206.452 43.4957 205.795C43.4957 205.175 43.3433 204.689 43.0384 204.337C42.7431 203.975 42.262 203.794 41.5951 203.794C40.9473 203.794 40.4424 203.999 40.0804 204.408C39.7279 204.809 39.5374 205.347 39.5088 206.023H38.2513C38.2894 204.956 38.6133 204.132 39.223 203.551C39.8327 202.97 40.6187 202.679 41.5809 202.679C42.5621 202.679 43.3385 202.951 43.9101 203.494C44.4913 204.037 44.7818 204.785 44.7818 205.737C44.7818 206.528 44.5437 207.3 44.0673 208.052C43.6005 208.795 43.067 209.453 42.4668 210.024C41.8667 210.586 41.0998 211.244 40.1661 211.996H45.0819V213.082H38.2084V212.154ZM46.2422 204.051V202.865H48.9287V213.197H47.6141V204.051H46.2422Z" fill="black"/>
<path d="M21.0157 163.567C22.2256 162.596 23.1735 161.8 23.8594 161.181C24.5453 160.552 25.1217 159.9 25.5885 159.223C26.0648 158.537 26.303 157.866 26.303 157.208C26.303 156.589 26.1506 156.103 25.8457 155.751C25.5504 155.389 25.0693 155.208 24.4024 155.208C23.7546 155.208 23.2497 155.413 22.8877 155.822C22.5352 156.222 22.3446 156.761 22.3161 157.437H21.0585C21.0966 156.37 21.4205 155.546 22.0303 154.965C22.64 154.384 23.4259 154.093 24.3881 154.093C25.3694 154.093 26.1458 154.365 26.7174 154.908C27.2985 155.451 27.5891 156.199 27.5891 157.151C27.5891 157.942 27.3509 158.714 26.8746 159.466C26.4078 160.209 25.8743 160.867 25.2741 161.438C24.6739 162 23.907 162.658 22.9734 163.41H27.8892V164.496H21.0157V163.567ZM29.3924 159.338C29.3924 157.699 29.6592 156.422 30.1927 155.508C30.7262 154.584 31.6598 154.122 32.9935 154.122C34.3177 154.122 35.2466 154.584 35.7801 155.508C36.3136 156.422 36.5803 157.699 36.5803 159.338C36.5803 161.005 36.3136 162.3 35.7801 163.224C35.2466 164.149 34.3177 164.611 32.9935 164.611C31.6598 164.611 30.7262 164.149 30.1927 163.224C29.6592 162.3 29.3924 161.005 29.3924 159.338ZM35.2942 159.338C35.2942 158.509 35.2371 157.809 35.1227 157.237C35.018 156.656 34.7941 156.189 34.4511 155.836C34.1177 155.484 33.6318 155.308 32.9935 155.308C32.3457 155.308 31.8503 155.484 31.5074 155.836C31.1739 156.189 30.95 156.656 30.8357 157.237C30.7309 157.809 30.6785 158.509 30.6785 159.338C30.6785 160.195 30.7309 160.914 30.8357 161.495C30.95 162.076 31.1739 162.543 31.5074 162.896C31.8503 163.248 32.3457 163.425 32.9935 163.425C33.6318 163.425 34.1177 163.248 34.4511 162.896C34.7941 162.543 35.018 162.076 35.1227 161.495C35.2371 160.914 35.2942 160.195 35.2942 159.338ZM38.2084 163.567C39.4183 162.596 40.3662 161.8 41.0521 161.181C41.738 160.552 42.3144 159.9 42.7812 159.223C43.2576 158.537 43.4957 157.866 43.4957 157.208C43.4957 156.589 43.3433 156.103 43.0384 155.751C42.7431 155.389 42.262 155.208 41.5951 155.208C40.9473 155.208 40.4424 155.413 40.0804 155.822C39.7279 156.222 39.5374 156.761 39.5088 157.437H38.2513C38.2894 156.37 38.6133 155.546 39.223 154.965C39.8327 154.384 40.6187 154.093 41.5809 154.093C42.5621 154.093 43.3385 154.365 43.9101 154.908C44.4913 155.451 44.7818 156.199 44.7818 157.151C44.7818 157.942 44.5437 158.714 44.0673 159.466C43.6005 160.209 43.067 160.867 42.4668 161.438C41.8667 162 41.0998 162.658 40.1661 163.41H45.0819V164.496H38.2084V163.567ZM46.428 163.567C47.6379 162.596 48.5858 161.8 49.2717 161.181C49.9576 160.552 50.534 159.9 51.0008 159.223C51.4771 158.537 51.7153 157.866 51.7153 157.208C51.7153 156.589 51.5629 156.103 51.258 155.751C50.9627 155.389 50.4816 155.208 49.8147 155.208C49.1669 155.208 48.662 155.413 48.3 155.822C47.9475 156.222 47.757 156.761 47.7284 157.437H46.4708C46.509 156.37 46.8329 155.546 47.4426 154.965C48.0523 154.384 48.8382 154.093 49.8004 154.093C50.7817 154.093 51.5581 154.365 52.1297 154.908C52.7108 155.451 53.0014 156.199 53.0014 157.151C53.0014 157.942 52.7632 158.714 52.2869 159.466C51.8201 160.209 51.2866 160.867 50.6864 161.438C50.0862 162 49.3193 162.658 48.3857 163.41H53.3015V164.496H46.428V163.567Z" fill="black"/>
<path d="M21.0157 113.552C22.2256 112.58 23.1735 111.785 23.8594 111.166C24.5453 110.537 25.1217 109.884 25.5885 109.208C26.0648 108.522 26.303 107.85 26.303 107.193C26.303 106.574 26.1506 106.088 25.8457 105.735C25.5504 105.373 25.0693 105.192 24.4024 105.192C23.7546 105.192 23.2497 105.397 22.8877 105.807C22.5352 106.207 22.3446 106.745 22.3161 107.422H21.0585C21.0966 106.355 21.4205 105.531 22.0303 104.95C22.64 104.368 23.4259 104.078 24.3881 104.078C25.3694 104.078 26.1458 104.349 26.7174 104.892C27.2985 105.435 27.5891 106.183 27.5891 107.136C27.5891 107.927 27.3509 108.698 26.8746 109.451C26.4078 110.194 25.8743 110.851 25.2741 111.423C24.6739 111.985 23.907 112.642 22.9734 113.395H27.8892V114.481H21.0157V113.552ZM29.3924 109.322C29.3924 107.684 29.6592 106.407 30.1927 105.493C30.7262 104.568 31.6598 104.106 32.9935 104.106C34.3177 104.106 35.2466 104.568 35.7801 105.493C36.3136 106.407 36.5803 107.684 36.5803 109.322C36.5803 110.989 36.3136 112.285 35.7801 113.209C35.2466 114.133 34.3177 114.595 32.9935 114.595C31.6598 114.595 30.7262 114.133 30.1927 113.209C29.6592 112.285 29.3924 110.989 29.3924 109.322ZM35.2942 109.322C35.2942 108.493 35.2371 107.793 35.1227 107.222C35.018 106.641 34.7941 106.174 34.4511 105.821C34.1177 105.469 33.6318 105.293 32.9935 105.293C32.3457 105.293 31.8503 105.469 31.5074 105.821C31.1739 106.174 30.95 106.641 30.8357 107.222C30.7309 107.793 30.6785 108.493 30.6785 109.322C30.6785 110.18 30.7309 110.899 30.8357 111.48C30.95 112.061 31.1739 112.528 31.5074 112.881C31.8503 113.233 32.3457 113.409 32.9935 113.409C33.6318 113.409 34.1177 113.233 34.4511 112.881C34.7941 112.528 35.018 112.061 35.1227 111.48C35.2371 110.899 35.2942 110.18 35.2942 109.322ZM38.2084 113.552C39.4183 112.58 40.3662 111.785 41.0521 111.166C41.738 110.537 42.3144 109.884 42.7812 109.208C43.2576 108.522 43.4957 107.85 43.4957 107.193C43.4957 106.574 43.3433 106.088 43.0384 105.735C42.7431 105.373 42.262 105.192 41.5951 105.192C40.9473 105.192 40.4424 105.397 40.0804 105.807C39.7279 106.207 39.5374 106.745 39.5088 107.422H38.2513C38.2894 106.355 38.6133 105.531 39.223 104.95C39.8327 104.368 40.6187 104.078 41.5809 104.078C42.5621 104.078 43.3385 104.349 43.9101 104.892C44.4913 105.435 44.7818 106.183 44.7818 107.136C44.7818 107.927 44.5437 108.698 44.0673 109.451C43.6005 110.194 43.067 110.851 42.4668 111.423C41.8667 111.985 41.0998 112.642 40.1661 113.395H45.0819V114.481H38.2084V113.552ZM46.5566 106.864C46.6233 105.988 46.9615 105.302 47.5712 104.807C48.1809 104.311 48.9716 104.064 49.9433 104.064C50.5911 104.064 51.1485 104.183 51.6153 104.421C52.0916 104.649 52.4489 104.964 52.687 105.364C52.9347 105.764 53.0586 106.217 53.0586 106.722C53.0586 107.312 52.8871 107.822 52.5441 108.251C52.2107 108.679 51.7725 108.956 51.2294 109.079V109.151C51.8487 109.303 52.3393 109.603 52.7013 110.051C53.0633 110.499 53.2443 111.085 53.2443 111.809C53.2443 112.352 53.1205 112.842 52.8728 113.281C52.6251 113.709 52.2536 114.048 51.7582 114.295C51.2628 114.543 50.6674 114.667 49.9719 114.667C48.9621 114.667 48.1333 114.405 47.4854 113.881C46.8376 113.347 46.4756 112.595 46.3994 111.623H47.6569C47.7236 112.195 47.957 112.661 48.3571 113.023C48.7573 113.385 49.2908 113.566 49.9576 113.566C50.6245 113.566 51.1294 113.395 51.4724 113.052C51.8249 112.7 52.0011 112.247 52.0011 111.694C52.0011 110.98 51.7629 110.466 51.2866 110.151C50.8103 109.837 50.091 109.68 49.1288 109.68H48.8001V108.594H49.1431C50.0195 108.584 50.6817 108.441 51.1294 108.165C51.5772 107.879 51.801 107.441 51.801 106.85C51.801 106.345 51.6343 105.94 51.3009 105.635C50.977 105.331 50.5102 105.178 49.9005 105.178C49.3098 105.178 48.8335 105.331 48.4715 105.635C48.1094 105.94 47.8951 106.35 47.8284 106.864H46.5566Z" fill="black"/>
<path d="M175.191 308.069V307.083L180.207 300.138H181.765V306.94H183.194V308.069H181.765V310.369H180.479V308.069H175.191ZM180.536 301.495L176.692 306.94H180.536V301.495ZM194.81 300.481V310.369H193.51V302.996L190.223 310.369H189.308L186.007 302.981V310.369H184.707V300.481H186.108L189.766 308.655L193.424 300.481H194.81Z" fill="black"/>
<path d="M295.585 302.496C295.375 301.438 294.723 300.909 293.627 300.909C292.779 300.909 292.146 301.238 291.727 301.895C291.308 302.543 291.103 303.615 291.112 305.111C291.331 304.615 291.693 304.229 292.198 303.953C292.713 303.667 293.284 303.524 293.913 303.524C294.894 303.524 295.676 303.829 296.257 304.439C296.847 305.049 297.143 305.892 297.143 306.968C297.143 307.616 297.014 308.197 296.757 308.712C296.509 309.226 296.128 309.636 295.614 309.941C295.109 310.246 294.494 310.398 293.77 310.398C292.789 310.398 292.022 310.179 291.47 309.741C290.917 309.302 290.531 308.697 290.312 307.926C290.093 307.154 289.983 306.201 289.983 305.068C289.983 301.571 291.203 299.823 293.642 299.823C294.575 299.823 295.309 300.076 295.842 300.581C296.376 301.086 296.69 301.724 296.785 302.496H295.585ZM293.642 304.625C293.232 304.625 292.846 304.711 292.484 304.882C292.122 305.044 291.827 305.296 291.598 305.639C291.379 305.973 291.269 306.382 291.269 306.868C291.269 307.592 291.479 308.183 291.898 308.64C292.317 309.088 292.918 309.312 293.699 309.312C294.366 309.312 294.894 309.107 295.285 308.697C295.685 308.278 295.885 307.716 295.885 307.011C295.885 306.268 295.695 305.687 295.314 305.268C294.932 304.839 294.375 304.625 293.642 304.625ZM309.214 300.481V310.369H307.914V302.996L304.627 310.369H303.713L300.412 302.981V310.369H299.111V300.481H300.512L304.17 308.655L307.828 300.481H309.214Z" fill="black"/>
<path d="M396.772 304.627C396.239 304.417 395.829 304.112 395.543 303.712C395.258 303.312 395.115 302.826 395.115 302.255C395.115 301.74 395.243 301.278 395.5 300.869C395.758 300.449 396.139 300.121 396.644 299.883C397.158 299.635 397.777 299.511 398.501 299.511C399.225 299.511 399.84 299.635 400.345 299.883C400.859 300.121 401.245 300.449 401.502 300.869C401.769 301.278 401.902 301.74 401.902 302.255C401.902 302.807 401.755 303.293 401.459 303.712C401.164 304.122 400.759 304.427 400.245 304.627C400.835 304.808 401.302 305.127 401.645 305.584C401.998 306.032 402.174 306.575 402.174 307.213C402.174 307.833 402.021 308.376 401.717 308.843C401.412 309.3 400.978 309.657 400.416 309.914C399.864 310.162 399.225 310.286 398.501 310.286C397.777 310.286 397.139 310.162 396.587 309.914C396.043 309.657 395.62 309.3 395.315 308.843C395.01 308.376 394.857 307.833 394.857 307.213C394.857 306.575 395.029 306.027 395.372 305.57C395.715 305.113 396.182 304.798 396.772 304.627ZM400.645 302.412C400.645 301.831 400.454 301.383 400.073 301.069C399.692 300.754 399.168 300.597 398.501 300.597C397.844 300.597 397.325 300.754 396.944 301.069C396.563 301.383 396.372 301.836 396.372 302.426C396.372 302.96 396.567 303.388 396.958 303.712C397.358 304.036 397.873 304.198 398.501 304.198C399.14 304.198 399.654 304.036 400.045 303.712C400.445 303.379 400.645 302.945 400.645 302.412ZM398.501 305.199C397.796 305.199 397.22 305.365 396.772 305.699C396.325 306.023 396.101 306.513 396.101 307.171C396.101 307.78 396.315 308.271 396.744 308.642C397.182 309.014 397.768 309.2 398.501 309.2C399.235 309.2 399.816 309.014 400.245 308.642C400.673 308.271 400.888 307.78 400.888 307.171C400.888 306.532 400.669 306.046 400.23 305.713C399.792 305.37 399.216 305.199 398.501 305.199ZM414.218 300.111V310H412.918V302.626L409.631 310H408.717L405.416 302.612V310H404.115V300.111H405.516L409.174 308.285L412.832 300.111H414.218Z" fill="black"/>
<path d="M508.864 300.854V299.668H511.55V310H510.236V300.854H508.864ZM513.784 304.727C513.784 303.088 514.051 301.812 514.584 300.897C515.118 299.973 516.051 299.511 517.385 299.511C518.709 299.511 519.638 299.973 520.172 300.897C520.705 301.812 520.972 303.088 520.972 304.727C520.972 306.394 520.705 307.69 520.172 308.614C519.638 309.538 518.709 310 517.385 310C516.051 310 515.118 309.538 514.584 308.614C514.051 307.69 513.784 306.394 513.784 304.727ZM519.686 304.727C519.686 303.898 519.629 303.198 519.514 302.626C519.41 302.045 519.186 301.578 518.843 301.226C518.509 300.873 518.023 300.697 517.385 300.697C516.737 300.697 516.242 300.873 515.899 301.226C515.566 301.578 515.342 302.045 515.227 302.626C515.123 303.198 515.07 303.898 515.07 304.727C515.07 305.584 515.123 306.304 515.227 306.885C515.342 307.466 515.566 307.933 515.899 308.285C516.242 308.638 516.737 308.814 517.385 308.814C518.023 308.814 518.509 308.638 518.843 308.285C519.186 307.933 519.41 307.466 519.514 306.885C519.629 306.304 519.686 305.584 519.686 304.727ZM533.075 300.111V310H531.774V302.626L528.488 310H527.573L524.272 302.612V310H522.972V300.111H524.372L528.03 308.285L531.689 300.111H533.075Z" fill="black"/>
<path d="M29.2155 33.9795C29.2155 34.8331 29.0097 35.6333 28.5981 36.3802C28.2018 37.1271 27.5692 37.7292 26.7004 38.1865C25.8468 38.6438 24.7646 38.8724 23.4537 38.8724H20.7786V45H17.5776V29.0409H23.4537C24.6884 29.0409 25.7401 29.2543 26.6089 29.681C27.4778 30.1078 28.1256 30.6947 28.5524 31.4416C28.9944 32.1885 29.2155 33.0344 29.2155 33.9795ZM23.3165 36.2888C24.2006 36.2888 24.856 36.0906 25.2828 35.6943C25.7096 35.2828 25.923 34.7112 25.923 33.9795C25.923 32.4247 25.0542 31.6474 23.3165 31.6474H20.7786V36.2888H23.3165ZM34.6891 34.2996C35.1006 33.6289 35.6341 33.103 36.2896 32.722C36.9603 32.3409 37.7224 32.1504 38.576 32.1504V35.5114H37.73C36.724 35.5114 35.9619 35.7477 35.4436 36.2202C34.9406 36.6927 34.6891 37.5158 34.6891 38.6895V45H31.4881V32.3333H34.6891V34.2996ZM52.507 38.3923C52.507 38.8496 52.4765 39.2611 52.4156 39.6269H43.1556C43.2318 40.5415 43.5519 41.2579 44.1159 41.7762C44.6799 42.2944 45.3734 42.5535 46.1965 42.5535C47.3855 42.5535 48.2314 42.0429 48.7344 41.0216H52.1869C51.8211 42.2411 51.1199 43.2471 50.0834 44.0397C49.0469 44.8171 47.7741 45.2058 46.2651 45.2058C45.0457 45.2058 43.9482 44.939 42.9727 44.4055C42.0124 43.8568 41.2579 43.087 40.7091 42.0963C40.1756 41.1055 39.9089 39.9623 39.9089 38.6666C39.9089 37.3558 40.1756 36.2049 40.7091 35.2142C41.2426 34.2234 41.9895 33.4612 42.9498 32.9278C43.9101 32.3943 45.0152 32.1275 46.2651 32.1275C47.4693 32.1275 48.5439 32.3866 49.489 32.9049C50.4492 33.4231 51.1885 34.1624 51.7068 35.1227C52.2403 36.0678 52.507 37.1576 52.507 38.3923ZM49.1917 37.4777C49.1765 36.6546 48.8792 35.9992 48.3 35.5114C47.7208 35.0084 47.012 34.7569 46.1737 34.7569C45.381 34.7569 44.7104 35.0008 44.1616 35.4885C43.6281 35.9611 43.3004 36.6241 43.1785 37.4777H49.1917ZM59.805 32.1275C60.75 32.1275 61.5807 32.318 62.2971 32.6991C63.0135 33.0649 63.5775 33.5451 63.9891 34.1395V32.3333H67.2129V45.0915C67.2129 46.2651 66.9767 47.3093 66.5041 48.2238C66.0316 49.1536 65.3228 49.8853 64.3778 50.4188C63.4327 50.9675 62.2895 51.2419 60.9482 51.2419C59.1495 51.2419 57.671 50.8227 56.5125 49.9844C55.3693 49.146 54.7215 48.0028 54.5691 46.5548H57.7472C57.9149 47.134 58.2731 47.5913 58.8218 47.9266C59.3858 48.2772 60.0641 48.4525 60.8567 48.4525C61.7865 48.4525 62.541 48.1705 63.1202 47.6065C63.6995 47.0578 63.9891 46.2194 63.9891 45.0915V43.1251C63.5775 43.7196 63.0059 44.215 62.2743 44.6113C61.5579 45.0076 60.7348 45.2058 59.805 45.2058C58.738 45.2058 57.7624 44.9314 56.8783 44.3827C55.9943 43.8339 55.2931 43.0642 54.7748 42.0734C54.2718 41.0674 54.0203 39.9165 54.0203 38.6209C54.0203 37.3405 54.2718 36.2049 54.7748 35.2142C55.2931 34.2234 55.9866 33.4612 56.8555 32.9278C57.7396 32.3943 58.7227 32.1275 59.805 32.1275ZM63.9891 38.6666C63.9891 37.8893 63.8367 37.2262 63.5318 36.6775C63.2269 36.1135 62.8154 35.6867 62.2971 35.3971C61.7789 35.0922 61.2225 34.9398 60.6281 34.9398C60.0336 34.9398 59.4849 35.0846 58.9818 35.3742C58.4788 35.6638 58.0673 36.0906 57.7472 36.6546C57.4423 37.2033 57.2899 37.8588 57.2899 38.6209C57.2899 39.3831 57.4423 40.0537 57.7472 40.633C58.0673 41.1969 58.4788 41.6314 58.9818 41.9362C59.5001 42.2411 60.0488 42.3935 60.6281 42.3935C61.2225 42.3935 61.7789 42.2487 62.2971 41.9591C62.8154 41.6542 63.2269 41.2274 63.5318 40.6787C63.8367 40.1147 63.9891 39.444 63.9891 38.6666ZM77.3585 32.1504C78.8675 32.1504 80.087 32.6305 81.0168 33.5908C81.9466 34.5359 82.4115 35.862 82.4115 37.5692V45H79.2105V38.0036C79.2105 36.9976 78.959 36.2278 78.456 35.6943C77.953 35.1456 77.2671 34.8712 76.3982 34.8712C75.5141 34.8712 74.813 35.1456 74.2947 35.6943C73.7917 36.2278 73.5402 36.9976 73.5402 38.0036V45H70.3392V32.3333H73.5402V33.9109C73.967 33.3622 74.5081 32.9354 75.1636 32.6305C75.8342 32.3104 76.5659 32.1504 77.3585 32.1504ZM84.6323 38.6209C84.6323 37.3405 84.8838 36.2049 85.3868 35.2142C85.9051 34.2234 86.5986 33.4612 87.4675 32.9278C88.3516 32.3943 89.3347 32.1275 90.417 32.1275C91.362 32.1275 92.1851 32.318 92.8863 32.6991C93.6027 33.0802 94.1743 33.5603 94.6011 34.1395V32.3333H97.8249V45H94.6011V43.148C94.1895 43.7425 93.6179 44.2379 92.8863 44.6342C92.1699 45.0152 91.3391 45.2058 90.3941 45.2058C89.3271 45.2058 88.3516 44.9314 87.4675 44.3827C86.5986 43.8339 85.9051 43.0642 85.3868 42.0734C84.8838 41.0674 84.6323 39.9165 84.6323 38.6209ZM94.6011 38.6666C94.6011 37.8893 94.4487 37.2262 94.1438 36.6775C93.8389 36.1135 93.4274 35.6867 92.9091 35.3971C92.3909 35.0922 91.8345 34.9398 91.2401 34.9398C90.6456 34.9398 90.0969 35.0846 89.5938 35.3742C89.0908 35.6638 88.6793 36.0906 88.3592 36.6546C88.0543 37.2033 87.9019 37.8588 87.9019 38.6209C87.9019 39.3831 88.0543 40.0537 88.3592 40.633C88.6793 41.1969 89.0908 41.6314 89.5938 41.9362C90.1121 42.2411 90.6608 42.3935 91.2401 42.3935C91.8345 42.3935 92.3909 42.2487 92.9091 41.9591C93.4274 41.6542 93.8389 41.2274 94.1438 40.6787C94.4487 40.1147 94.6011 39.444 94.6011 38.6666ZM107.971 32.1504C109.48 32.1504 110.699 32.6305 111.629 33.5908C112.559 34.5359 113.023 35.862 113.023 37.5692V45H109.823V38.0036C109.823 36.9976 109.571 36.2278 109.068 35.6943C108.565 35.1456 107.879 34.8712 107.01 34.8712C106.126 34.8712 105.425 35.1456 104.907 35.6943C104.404 36.2278 104.152 36.9976 104.152 38.0036V45H100.951V32.3333H104.152V33.9109C104.579 33.3622 105.12 32.9354 105.776 32.6305C106.446 32.3104 107.178 32.1504 107.971 32.1504ZM115.244 38.6666C115.244 37.3558 115.511 36.2126 116.045 35.237C116.578 34.2462 117.317 33.4841 118.262 32.9506C119.207 32.4019 120.29 32.1275 121.509 32.1275C123.079 32.1275 124.375 32.5238 125.396 33.3164C126.433 34.0938 127.126 35.1913 127.477 36.6089H124.024C123.841 36.0601 123.529 35.6333 123.087 35.3285C122.66 35.0084 122.126 34.8483 121.486 34.8483C120.572 34.8483 119.848 35.1837 119.314 35.8544C118.781 36.5098 118.514 37.4472 118.514 38.6666C118.514 39.8708 118.781 40.8082 119.314 41.4789C119.848 42.1344 120.572 42.4621 121.486 42.4621C122.782 42.4621 123.628 41.8829 124.024 40.7244H127.477C127.126 42.0963 126.433 43.1861 125.396 43.994C124.359 44.8018 123.064 45.2058 121.509 45.2058C120.29 45.2058 119.207 44.939 118.262 44.4055C117.317 43.8568 116.578 43.0947 116.045 42.1191C115.511 41.1283 115.244 39.9775 115.244 38.6666ZM141.94 32.3333L134.097 50.9904H130.69L133.434 44.6799L128.358 32.3333H131.948L135.218 41.1817L138.533 32.3333H141.94ZM159.974 29.0409V31.6245H155.721V45H152.52V31.6245H148.267V29.0409H159.974ZM174.084 38.3923C174.084 38.8496 174.054 39.2611 173.993 39.6269H164.733C164.809 40.5415 165.129 41.2579 165.693 41.7762C166.257 42.2944 166.951 42.5535 167.774 42.5535C168.963 42.5535 169.809 42.0429 170.312 41.0216H173.764C173.398 42.2411 172.697 43.2471 171.661 44.0397C170.624 44.8171 169.351 45.2058 167.842 45.2058C166.623 45.2058 165.525 44.939 164.55 44.4055C163.59 43.8568 162.835 43.087 162.286 42.0963C161.753 41.1055 161.486 39.9623 161.486 38.6666C161.486 37.3558 161.753 36.2049 162.286 35.2142C162.82 34.2234 163.567 33.4612 164.527 32.9278C165.487 32.3943 166.592 32.1275 167.842 32.1275C169.046 32.1275 170.121 32.3866 171.066 32.9049C172.026 33.4231 172.766 34.1624 173.284 35.1227C173.817 36.0678 174.084 37.1576 174.084 38.3923ZM170.769 37.4777C170.754 36.6546 170.456 35.9992 169.877 35.5114C169.298 35.0084 168.589 34.7569 167.751 34.7569C166.958 34.7569 166.288 35.0008 165.739 35.4885C165.205 35.9611 164.878 36.6241 164.756 37.4777H170.769ZM181.268 45.2058C180.231 45.2058 179.302 45.0229 178.478 44.657C177.655 44.276 177 43.7653 176.512 43.1251C176.04 42.4849 175.78 41.7762 175.735 40.9988H178.959C179.02 41.4865 179.256 41.8905 179.667 42.2106C180.094 42.5307 180.62 42.6907 181.245 42.6907C181.855 42.6907 182.327 42.5688 182.663 42.3249C183.013 42.081 183.188 41.7685 183.188 41.3875C183.188 40.9759 182.975 40.6711 182.548 40.4729C182.137 40.2595 181.474 40.0309 180.559 39.787C179.614 39.5583 178.837 39.3221 178.227 39.0782C177.632 38.8343 177.114 38.4609 176.672 37.9579C176.245 37.4548 176.032 36.7765 176.032 35.9229C176.032 35.2218 176.23 34.5816 176.626 34.0024C177.038 33.4231 177.617 32.9659 178.364 32.6305C179.126 32.2952 180.018 32.1275 181.039 32.1275C182.548 32.1275 183.752 32.5086 184.652 33.2707C185.551 34.0176 186.046 35.0312 186.138 36.3116H183.074C183.028 35.8086 182.815 35.4123 182.434 35.1227C182.068 34.8179 181.573 34.6654 180.948 34.6654C180.369 34.6654 179.919 34.7721 179.599 34.9855C179.294 35.1989 179.141 35.4962 179.141 35.8772C179.141 36.304 179.355 36.6317 179.782 36.8604C180.208 37.0738 180.872 37.2948 181.771 37.5234C182.685 37.7521 183.44 37.9883 184.034 38.2322C184.629 38.4761 185.14 38.8572 185.566 39.3754C186.008 39.8784 186.237 40.5491 186.252 41.3875C186.252 42.1191 186.046 42.7746 185.635 43.3538C185.239 43.933 184.659 44.3903 183.897 44.7256C183.15 45.0457 182.274 45.2058 181.268 45.2058ZM192.607 34.9627V41.0902C192.607 41.517 192.706 41.8295 192.904 42.0277C193.117 42.2106 193.468 42.302 193.956 42.302H195.442V45H193.43C190.732 45 189.383 43.6891 189.383 41.0674V34.9627H187.874V32.3333H189.383V29.2009H192.607V32.3333H195.442V34.9627H192.607ZM199.367 30.8243C198.803 30.8243 198.331 30.649 197.95 30.2984C197.584 29.9326 197.401 29.4829 197.401 28.9494C197.401 28.4159 197.584 27.9739 197.95 27.6233C198.331 27.2575 198.803 27.0745 199.367 27.0745C199.931 27.0745 200.396 27.2575 200.762 27.6233C201.143 27.9739 201.334 28.4159 201.334 28.9494C201.334 29.4829 201.143 29.9326 200.762 30.2984C200.396 30.649 199.931 30.8243 199.367 30.8243ZM200.945 32.3333V45H197.744V32.3333H200.945ZM211.127 32.1504C212.636 32.1504 213.855 32.6305 214.785 33.5908C215.715 34.5359 216.18 35.862 216.18 37.5692V45H212.979V38.0036C212.979 36.9976 212.727 36.2278 212.224 35.6943C211.721 35.1456 211.035 34.8712 210.167 34.8712C209.283 34.8712 208.581 35.1456 208.063 35.6943C207.56 36.2278 207.309 36.9976 207.309 38.0036V45H204.108V32.3333H207.309V33.9109C207.735 33.3622 208.277 32.9354 208.932 32.6305C209.603 32.3104 210.334 32.1504 211.127 32.1504ZM224.185 32.1275C225.13 32.1275 225.961 32.318 226.678 32.6991C227.394 33.0649 227.958 33.5451 228.37 34.1395V32.3333H231.593V45.0915C231.593 46.2651 231.357 47.3093 230.885 48.2238C230.412 49.1536 229.703 49.8853 228.758 50.4188C227.813 50.9675 226.67 51.2419 225.329 51.2419C223.53 51.2419 222.051 50.8227 220.893 49.9844C219.75 49.146 219.102 48.0028 218.949 46.5548H222.128C222.295 47.134 222.653 47.5913 223.202 47.9266C223.766 48.2772 224.445 48.4525 225.237 48.4525C226.167 48.4525 226.921 48.1705 227.501 47.6065C228.08 47.0578 228.37 46.2194 228.37 45.0915V43.1251C227.958 43.7196 227.386 44.215 226.655 44.6113C225.938 45.0076 225.115 45.2058 224.185 45.2058C223.118 45.2058 222.143 44.9314 221.259 44.3827C220.375 43.8339 219.674 43.0642 219.155 42.0734C218.652 41.0674 218.401 39.9165 218.401 38.6209C218.401 37.3405 218.652 36.2049 219.155 35.2142C219.674 34.2234 220.367 33.4612 221.236 32.9278C222.12 32.3943 223.103 32.1275 224.185 32.1275ZM228.37 38.6666C228.37 37.8893 228.217 37.2262 227.912 36.6775C227.607 36.1135 227.196 35.6867 226.678 35.3971C226.159 35.0922 225.603 34.9398 225.008 34.9398C224.414 34.9398 223.865 35.0846 223.362 35.3742C222.859 35.6638 222.448 36.0906 222.128 36.6546C221.823 37.2033 221.67 37.8588 221.67 38.6209C221.67 39.3831 221.823 40.0537 222.128 40.633C222.448 41.1969 222.859 41.6314 223.362 41.9362C223.881 42.2411 224.429 42.3935 225.008 42.3935C225.603 42.3935 226.159 42.2487 226.678 41.9591C227.196 41.6542 227.607 41.2274 227.912 40.6787C228.217 40.1147 228.37 39.444 228.37 38.6666Z" fill="black"/>
<rect x="67.4443" y="97.1664" width="55.7313" height="22.8641" fill="#DA2929"/>
<rect x="67.4443" y="247.212" width="122.895" height="22.8641" fill="#4E73B8"/>
<rect x="67.4443" y="147.182" width="270.082" height="22.8641" fill="#DBAE0D"/>
<rect x="67.4443" y="197.197" width="385.832" height="22.8641" fill="#22A7C5"/>
</svg>
