<svg width="572" height="351" viewBox="0 0 572 351" fill="none" xmlns="http://www.w3.org/2000/svg">
<rect x="0.5" y="0.5" width="571" height="350" rx="7.5" fill="white" stroke="#CECDCD"/>
<path d="M529.196 331.297C530.095 330.575 530.8 329.984 531.309 329.524C531.819 329.057 532.247 328.572 532.594 328.069C532.948 327.559 533.125 327.06 533.125 326.572C533.125 326.112 533.012 325.751 532.785 325.489C532.566 325.22 532.208 325.085 531.713 325.085C531.232 325.085 530.856 325.238 530.587 325.542C530.325 325.839 530.184 326.239 530.163 326.742H529.228C529.257 325.949 529.497 325.337 529.95 324.905C530.403 324.473 530.987 324.257 531.702 324.257C532.431 324.257 533.008 324.459 533.433 324.862C533.865 325.266 534.081 325.822 534.081 326.529C534.081 327.117 533.904 327.69 533.55 328.25C533.203 328.802 532.807 329.29 532.361 329.715C531.915 330.133 531.345 330.621 530.651 331.18H534.304V331.987H529.196V331.297ZM535.421 328.154C535.421 326.936 535.619 325.988 536.015 325.308C536.412 324.622 537.106 324.278 538.097 324.278C539.081 324.278 539.771 324.622 540.167 325.308C540.564 325.988 540.762 326.936 540.762 328.154C540.762 329.393 540.564 330.356 540.167 331.042C539.771 331.729 539.081 332.072 538.097 332.072C537.106 332.072 536.412 331.729 536.015 331.042C535.619 330.356 535.421 329.393 535.421 328.154ZM539.806 328.154C539.806 327.538 539.764 327.018 539.679 326.593C539.601 326.161 539.435 325.814 539.18 325.553C538.932 325.291 538.571 325.16 538.097 325.16C537.615 325.16 537.247 325.291 536.992 325.553C536.745 325.814 536.578 326.161 536.493 326.593C536.415 327.018 536.377 327.538 536.377 328.154C536.377 328.791 536.415 329.326 536.493 329.757C536.578 330.189 536.745 330.536 536.992 330.798C537.247 331.06 537.615 331.191 538.097 331.191C538.571 331.191 538.932 331.06 539.18 330.798C539.435 330.536 539.601 330.189 539.679 329.757C539.764 329.326 539.806 328.791 539.806 328.154ZM541.972 331.297C542.871 330.575 543.575 329.984 544.085 329.524C544.594 329.057 545.023 328.572 545.37 328.069C545.724 327.559 545.901 327.06 545.901 326.572C545.901 326.112 545.787 325.751 545.561 325.489C545.341 325.22 544.984 325.085 544.488 325.085C544.007 325.085 543.632 325.238 543.363 325.542C543.101 325.839 542.959 326.239 542.938 326.742H542.004C542.032 325.949 542.273 325.337 542.726 324.905C543.179 324.473 543.763 324.257 544.478 324.257C545.207 324.257 545.784 324.459 546.209 324.862C546.64 325.266 546.856 325.822 546.856 326.529C546.856 327.117 546.679 327.69 546.325 328.25C545.978 328.802 545.582 329.29 545.136 329.715C544.69 330.133 544.12 330.621 543.426 331.18H547.079V331.987H541.972V331.297ZM548.175 326.328C548.225 325.676 548.476 325.167 548.929 324.799C549.382 324.431 549.97 324.246 550.692 324.246C551.173 324.246 551.587 324.335 551.934 324.512C552.288 324.682 552.553 324.915 552.73 325.213C552.914 325.51 553.006 325.846 553.006 326.221C553.006 326.66 552.879 327.039 552.624 327.358C552.376 327.676 552.051 327.882 551.647 327.974V328.027C552.107 328.14 552.472 328.363 552.741 328.696C553.01 329.028 553.144 329.464 553.144 330.002C553.144 330.405 553.052 330.77 552.868 331.095C552.684 331.414 552.408 331.665 552.04 331.849C551.672 332.033 551.23 332.125 550.713 332.125C549.962 332.125 549.347 331.931 548.865 331.541C548.384 331.145 548.115 330.586 548.058 329.864H548.993C549.042 330.288 549.216 330.635 549.513 330.904C549.81 331.173 550.207 331.308 550.702 331.308C551.198 331.308 551.573 331.18 551.828 330.925C552.09 330.664 552.221 330.327 552.221 329.917C552.221 329.386 552.044 329.004 551.69 328.77C551.336 328.536 550.801 328.42 550.086 328.42H549.842V327.613H550.097C550.748 327.605 551.24 327.499 551.573 327.294C551.906 327.082 552.072 326.756 552.072 326.317C552.072 325.942 551.948 325.641 551.7 325.414C551.46 325.188 551.113 325.075 550.66 325.075C550.221 325.075 549.867 325.188 549.598 325.414C549.329 325.641 549.17 325.945 549.12 326.328H548.175Z" fill="black"/>
<path d="M463.968 331.297C464.867 330.575 465.572 329.984 466.081 329.524C466.591 329.057 467.019 328.572 467.366 328.069C467.72 327.559 467.897 327.06 467.897 326.572C467.897 326.112 467.784 325.751 467.557 325.489C467.338 325.22 466.98 325.085 466.485 325.085C466.004 325.085 465.628 325.238 465.359 325.542C465.097 325.839 464.956 326.239 464.935 326.742H464C464.028 325.949 464.269 325.337 464.722 324.905C465.175 324.473 465.759 324.257 466.474 324.257C467.203 324.257 467.78 324.459 468.205 324.862C468.637 325.266 468.853 325.822 468.853 326.529C468.853 327.117 468.676 327.69 468.322 328.25C467.975 328.802 467.579 329.29 467.133 329.715C466.687 330.133 466.117 330.621 465.423 331.18H469.076V331.987H463.968V331.297ZM470.193 328.154C470.193 326.936 470.391 325.988 470.787 325.308C471.184 324.622 471.878 324.278 472.869 324.278C473.853 324.278 474.543 324.622 474.939 325.308C475.336 325.988 475.534 326.936 475.534 328.154C475.534 329.393 475.336 330.356 474.939 331.042C474.543 331.729 473.853 332.072 472.869 332.072C471.878 332.072 471.184 331.729 470.787 331.042C470.391 330.356 470.193 329.393 470.193 328.154ZM474.578 328.154C474.578 327.538 474.536 327.018 474.451 326.593C474.373 326.161 474.207 325.814 473.952 325.553C473.704 325.291 473.343 325.16 472.869 325.16C472.387 325.16 472.019 325.291 471.764 325.553C471.517 325.814 471.35 326.161 471.265 326.593C471.187 327.018 471.148 327.538 471.148 328.154C471.148 328.791 471.187 329.326 471.265 329.757C471.35 330.189 471.517 330.536 471.764 330.798C472.019 331.06 472.387 331.191 472.869 331.191C473.343 331.191 473.704 331.06 473.952 330.798C474.207 330.536 474.373 330.189 474.451 329.757C474.536 329.326 474.578 328.791 474.578 328.154ZM476.744 331.297C477.643 330.575 478.347 329.984 478.857 329.524C479.366 329.057 479.795 328.572 480.142 328.069C480.496 327.559 480.673 327.06 480.673 326.572C480.673 326.112 480.559 325.751 480.333 325.489C480.113 325.22 479.756 325.085 479.26 325.085C478.779 325.085 478.404 325.238 478.135 325.542C477.873 325.839 477.731 326.239 477.71 326.742H476.776C476.804 325.949 477.045 325.337 477.498 324.905C477.951 324.473 478.535 324.257 479.25 324.257C479.979 324.257 480.556 324.459 480.98 324.862C481.412 325.266 481.628 325.822 481.628 326.529C481.628 327.117 481.451 327.69 481.097 328.25C480.75 328.802 480.354 329.29 479.908 329.715C479.462 330.133 478.892 330.621 478.198 331.18H481.851V331.987H476.744V331.297ZM482.851 331.297C483.75 330.575 484.455 329.984 484.964 329.524C485.474 329.057 485.902 328.572 486.249 328.069C486.603 327.559 486.78 327.06 486.78 326.572C486.78 326.112 486.667 325.751 486.44 325.489C486.221 325.22 485.864 325.085 485.368 325.085C484.887 325.085 484.511 325.238 484.242 325.542C483.981 325.839 483.839 326.239 483.818 326.742H482.883C482.912 325.949 483.152 325.337 483.605 324.905C484.058 324.473 484.642 324.257 485.357 324.257C486.087 324.257 486.663 324.459 487.088 324.862C487.52 325.266 487.736 325.822 487.736 326.529C487.736 327.117 487.559 327.69 487.205 328.25C486.858 328.802 486.462 329.29 486.016 329.715C485.57 330.133 485 330.621 484.306 331.18H487.959V331.987H482.851V331.297Z" fill="black"/>
<path d="M394.948 331.297C395.847 330.575 396.551 329.984 397.061 329.524C397.571 329.057 397.999 328.572 398.346 328.069C398.7 327.559 398.877 327.06 398.877 326.572C398.877 326.112 398.763 325.751 398.537 325.489C398.317 325.22 397.96 325.085 397.464 325.085C396.983 325.085 396.608 325.238 396.339 325.542C396.077 325.839 395.935 326.239 395.914 326.742H394.98C395.008 325.949 395.249 325.337 395.702 324.905C396.155 324.473 396.739 324.257 397.454 324.257C398.183 324.257 398.76 324.459 399.185 324.862C399.616 325.266 399.832 325.822 399.832 326.529C399.832 327.117 399.655 327.69 399.301 328.25C398.954 328.802 398.558 329.29 398.112 329.715C397.666 330.133 397.096 330.621 396.402 331.18H400.055V331.987H394.948V331.297ZM401.172 328.154C401.172 326.936 401.37 325.988 401.767 325.308C402.163 324.622 402.857 324.278 403.848 324.278C404.832 324.278 405.522 324.622 405.919 325.308C406.315 325.988 406.513 326.936 406.513 328.154C406.513 329.393 406.315 330.356 405.919 331.042C405.522 331.729 404.832 332.072 403.848 332.072C402.857 332.072 402.163 331.729 401.767 331.042C401.37 330.356 401.172 329.393 401.172 328.154ZM405.558 328.154C405.558 327.538 405.515 327.018 405.43 326.593C405.352 326.161 405.186 325.814 404.931 325.553C404.683 325.291 404.322 325.16 403.848 325.16C403.367 325.16 402.999 325.291 402.744 325.553C402.496 325.814 402.33 326.161 402.245 326.593C402.167 327.018 402.128 327.538 402.128 328.154C402.128 328.791 402.167 329.326 402.245 329.757C402.33 330.189 402.496 330.536 402.744 330.798C402.999 331.06 403.367 331.191 403.848 331.191C404.322 331.191 404.683 331.06 404.931 330.798C405.186 330.536 405.352 330.189 405.43 329.757C405.515 329.326 405.558 328.791 405.558 328.154ZM407.723 331.297C408.622 330.575 409.327 329.984 409.836 329.524C410.346 329.057 410.774 328.572 411.121 328.069C411.475 327.559 411.652 327.06 411.652 326.572C411.652 326.112 411.539 325.751 411.312 325.489C411.093 325.22 410.735 325.085 410.24 325.085C409.758 325.085 409.383 325.238 409.114 325.542C408.852 325.839 408.711 326.239 408.689 326.742H407.755C407.783 325.949 408.024 325.337 408.477 324.905C408.93 324.473 409.514 324.257 410.229 324.257C410.958 324.257 411.535 324.459 411.96 324.862C412.392 325.266 412.608 325.822 412.608 326.529C412.608 327.117 412.431 327.69 412.077 328.25C411.73 328.802 411.333 329.29 410.887 329.715C410.441 330.133 409.872 330.621 409.178 331.18H412.831V331.987H407.723V331.297ZM413.693 325.276V324.395H415.689V332.072H414.712V325.276H413.693Z" fill="black"/>
<path d="M325.927 331.297C326.826 330.575 327.531 329.984 328.04 329.524C328.55 329.057 328.978 328.572 329.325 328.069C329.679 327.559 329.856 327.06 329.856 326.572C329.856 326.112 329.743 325.751 329.516 325.489C329.297 325.22 328.94 325.085 328.444 325.085C327.963 325.085 327.587 325.238 327.318 325.542C327.057 325.839 326.915 326.239 326.894 326.742H325.959C325.988 325.949 326.228 325.337 326.681 324.905C327.134 324.473 327.718 324.257 328.433 324.257C329.163 324.257 329.739 324.459 330.164 324.862C330.596 325.266 330.812 325.822 330.812 326.529C330.812 327.117 330.635 327.69 330.281 328.25C329.934 328.802 329.538 329.29 329.092 329.715C328.646 330.133 328.076 330.621 327.382 331.18H331.035V331.987H325.927V331.297ZM332.152 328.154C332.152 326.936 332.35 325.988 332.747 325.308C333.143 324.622 333.837 324.278 334.828 324.278C335.812 324.278 336.502 324.622 336.898 325.308C337.295 325.988 337.493 326.936 337.493 328.154C337.493 329.393 337.295 330.356 336.898 331.042C336.502 331.729 335.812 332.072 334.828 332.072C333.837 332.072 333.143 331.729 332.747 331.042C332.35 330.356 332.152 329.393 332.152 328.154ZM336.537 328.154C336.537 327.538 336.495 327.018 336.41 326.593C336.332 326.161 336.166 325.814 335.911 325.553C335.663 325.291 335.302 325.16 334.828 325.16C334.346 325.16 333.978 325.291 333.723 325.553C333.476 325.814 333.309 326.161 333.224 326.593C333.147 327.018 333.108 327.538 333.108 328.154C333.108 328.791 333.147 329.326 333.224 329.757C333.309 330.189 333.476 330.536 333.723 330.798C333.978 331.06 334.346 331.191 334.828 331.191C335.302 331.191 335.663 331.06 335.911 330.798C336.166 330.536 336.332 330.189 336.41 329.757C336.495 329.326 336.537 328.791 336.537 328.154ZM338.703 331.297C339.602 330.575 340.306 329.984 340.816 329.524C341.326 329.057 341.754 328.572 342.101 328.069C342.455 327.559 342.632 327.06 342.632 326.572C342.632 326.112 342.518 325.751 342.292 325.489C342.072 325.22 341.715 325.085 341.219 325.085C340.738 325.085 340.363 325.238 340.094 325.542C339.832 325.839 339.69 326.239 339.669 326.742H338.735C338.763 325.949 339.004 325.337 339.457 324.905C339.91 324.473 340.494 324.257 341.209 324.257C341.938 324.257 342.515 324.459 342.94 324.862C343.371 325.266 343.587 325.822 343.587 326.529C343.587 327.117 343.41 327.69 343.056 328.25C342.71 328.802 342.313 329.29 341.867 329.715C341.421 330.133 340.851 330.621 340.158 331.18H343.81V331.987H338.703V331.297ZM344.927 328.154C344.927 326.936 345.126 325.988 345.522 325.308C345.918 324.622 346.612 324.278 347.603 324.278C348.587 324.278 349.277 324.622 349.674 325.308C350.07 325.988 350.268 326.936 350.268 328.154C350.268 329.393 350.07 330.356 349.674 331.042C349.277 331.729 348.587 332.072 347.603 332.072C346.612 332.072 345.918 331.729 345.522 331.042C345.126 330.356 344.927 329.393 344.927 328.154ZM349.313 328.154C349.313 327.538 349.27 327.018 349.185 326.593C349.107 326.161 348.941 325.814 348.686 325.553C348.439 325.291 348.077 325.16 347.603 325.16C347.122 325.16 346.754 325.291 346.499 325.553C346.251 325.814 346.085 326.161 346 326.593C345.922 327.018 345.883 327.538 345.883 328.154C345.883 328.791 345.922 329.326 346 329.757C346.085 330.189 346.251 330.536 346.499 330.798C346.754 331.06 347.122 331.191 347.603 331.191C348.077 331.191 348.439 331.06 348.686 330.798C348.941 330.536 349.107 330.189 349.185 329.757C349.27 329.326 349.313 328.791 349.313 328.154Z" fill="black"/>
<path d="M256.907 331.297C257.806 330.575 258.511 329.984 259.02 329.524C259.53 329.057 259.958 328.572 260.305 328.069C260.659 327.559 260.836 327.06 260.836 326.572C260.836 326.112 260.723 325.751 260.496 325.489C260.277 325.22 259.919 325.085 259.424 325.085C258.943 325.085 258.567 325.238 258.298 325.542C258.036 325.839 257.895 326.239 257.874 326.742H256.939C256.967 325.949 257.208 325.337 257.661 324.905C258.114 324.473 258.698 324.257 259.413 324.257C260.142 324.257 260.719 324.459 261.144 324.862C261.576 325.266 261.792 325.822 261.792 326.529C261.792 327.117 261.615 327.69 261.261 328.25C260.914 328.802 260.518 329.29 260.072 329.715C259.626 330.133 259.056 330.621 258.362 331.18H262.015V331.987H256.907V331.297ZM263.132 328.154C263.132 326.936 263.33 325.988 263.726 325.308C264.123 324.622 264.817 324.278 265.808 324.278C266.792 324.278 267.482 324.622 267.878 325.308C268.275 325.988 268.473 326.936 268.473 328.154C268.473 329.393 268.275 330.356 267.878 331.042C267.482 331.729 266.792 332.072 265.808 332.072C264.817 332.072 264.123 331.729 263.726 331.042C263.33 330.356 263.132 329.393 263.132 328.154ZM267.517 328.154C267.517 327.538 267.475 327.018 267.39 326.593C267.312 326.161 267.146 325.814 266.891 325.553C266.643 325.291 266.282 325.16 265.808 325.16C265.326 325.16 264.958 325.291 264.703 325.553C264.456 325.814 264.289 326.161 264.204 326.593C264.126 327.018 264.088 327.538 264.088 328.154C264.088 328.791 264.126 329.326 264.204 329.757C264.289 330.189 264.456 330.536 264.703 330.798C264.958 331.06 265.326 331.191 265.808 331.191C266.282 331.191 266.643 331.06 266.891 330.798C267.146 330.536 267.312 330.189 267.39 329.757C267.475 329.326 267.517 328.791 267.517 328.154ZM269.545 325.276V324.395H271.541V332.072H270.564V325.276H269.545ZM274.443 330.012C274.514 330.416 274.677 330.727 274.932 330.947C275.194 331.166 275.544 331.276 275.983 331.276C276.57 331.276 277.002 331.046 277.278 330.586C277.561 330.126 277.696 329.35 277.682 328.26C277.533 328.579 277.285 328.83 276.938 329.014C276.592 329.191 276.206 329.28 275.781 329.28C275.307 329.28 274.882 329.184 274.507 328.993C274.139 328.795 273.848 328.508 273.636 328.133C273.424 327.758 273.318 327.305 273.318 326.774C273.318 326.016 273.537 325.407 273.976 324.947C274.415 324.48 275.038 324.246 275.845 324.246C276.836 324.246 277.53 324.569 277.926 325.213C278.33 325.857 278.531 326.816 278.531 328.09C278.531 328.982 278.45 329.719 278.287 330.299C278.131 330.879 277.862 331.322 277.48 331.626C277.105 331.931 276.588 332.083 275.93 332.083C275.208 332.083 274.645 331.888 274.241 331.499C273.838 331.11 273.608 330.614 273.551 330.012H274.443ZM275.94 328.462C276.415 328.462 276.804 328.317 277.108 328.027C277.413 327.729 277.565 327.329 277.565 326.827C277.565 326.296 277.416 325.868 277.119 325.542C276.822 325.216 276.404 325.053 275.866 325.053C275.37 325.053 274.974 325.209 274.677 325.521C274.387 325.832 274.241 326.243 274.241 326.752C274.241 327.269 274.387 327.683 274.677 327.995C274.967 328.306 275.388 328.462 275.94 328.462Z" fill="black"/>
<path d="M186.37 331.297C187.269 330.575 187.973 329.984 188.483 329.524C188.993 329.057 189.421 328.572 189.768 328.069C190.122 327.559 190.299 327.06 190.299 326.572C190.299 326.112 190.186 325.751 189.959 325.489C189.74 325.22 189.382 325.085 188.887 325.085C188.405 325.085 188.03 325.238 187.761 325.542C187.499 325.839 187.357 326.239 187.336 326.742H186.402C186.43 325.949 186.671 325.337 187.124 324.905C187.577 324.473 188.161 324.257 188.876 324.257C189.605 324.257 190.182 324.459 190.607 324.862C191.039 325.266 191.254 325.822 191.254 326.529C191.254 327.117 191.078 327.69 190.724 328.25C190.377 328.802 189.98 329.29 189.534 329.715C189.088 330.133 188.518 330.621 187.825 331.18H191.477V331.987H186.37V331.297ZM192.594 328.154C192.594 326.936 192.793 325.988 193.189 325.308C193.586 324.622 194.279 324.278 195.27 324.278C196.254 324.278 196.945 324.622 197.341 325.308C197.737 325.988 197.936 326.936 197.936 328.154C197.936 329.393 197.737 330.356 197.341 331.042C196.945 331.729 196.254 332.072 195.27 332.072C194.279 332.072 193.586 331.729 193.189 331.042C192.793 330.356 192.594 329.393 192.594 328.154ZM196.98 328.154C196.98 327.538 196.937 327.018 196.853 326.593C196.775 326.161 196.608 325.814 196.353 325.553C196.106 325.291 195.745 325.16 195.27 325.16C194.789 325.16 194.421 325.291 194.166 325.553C193.918 325.814 193.752 326.161 193.667 326.593C193.589 327.018 193.55 327.538 193.55 328.154C193.55 328.791 193.589 329.326 193.667 329.757C193.752 330.189 193.918 330.536 194.166 330.798C194.421 331.06 194.789 331.191 195.27 331.191C195.745 331.191 196.106 331.06 196.353 330.798C196.608 330.536 196.775 330.189 196.853 329.757C196.937 329.326 196.98 328.791 196.98 328.154ZM199.007 325.276V324.395H201.004V332.072H200.027V325.276H199.007ZM204.065 328.08C203.669 327.924 203.364 327.697 203.152 327.4C202.939 327.103 202.833 326.742 202.833 326.317C202.833 325.935 202.929 325.591 203.12 325.287C203.311 324.976 203.594 324.731 203.969 324.554C204.352 324.37 204.812 324.278 205.35 324.278C205.888 324.278 206.344 324.37 206.72 324.554C207.102 324.731 207.389 324.976 207.58 325.287C207.778 325.591 207.877 325.935 207.877 326.317C207.877 326.728 207.767 327.089 207.548 327.4C207.328 327.705 207.028 327.931 206.645 328.08C207.084 328.214 207.431 328.451 207.686 328.791C207.948 329.124 208.079 329.527 208.079 330.002C208.079 330.462 207.966 330.865 207.739 331.212C207.513 331.552 207.19 331.817 206.773 332.009C206.362 332.193 205.888 332.285 205.35 332.285C204.812 332.285 204.338 332.193 203.927 332.009C203.524 331.817 203.208 331.552 202.982 331.212C202.755 330.865 202.642 330.462 202.642 330.002C202.642 329.527 202.77 329.12 203.024 328.781C203.279 328.441 203.626 328.207 204.065 328.08ZM206.943 326.434C206.943 326.002 206.801 325.669 206.518 325.436C206.235 325.202 205.845 325.085 205.35 325.085C204.861 325.085 204.476 325.202 204.192 325.436C203.909 325.669 203.768 326.006 203.768 326.444C203.768 326.841 203.913 327.159 204.203 327.4C204.5 327.641 204.883 327.761 205.35 327.761C205.824 327.761 206.206 327.641 206.497 327.4C206.794 327.152 206.943 326.83 206.943 326.434ZM205.35 328.504C204.826 328.504 204.398 328.628 204.065 328.876C203.732 329.117 203.566 329.481 203.566 329.97C203.566 330.423 203.725 330.787 204.044 331.064C204.369 331.34 204.805 331.478 205.35 331.478C205.895 331.478 206.327 331.34 206.645 331.064C206.964 330.787 207.123 330.423 207.123 329.97C207.123 329.496 206.96 329.135 206.635 328.887C206.309 328.632 205.881 328.504 205.35 328.504Z" fill="black"/>
<path d="M121.142 331.297C122.041 330.575 122.746 329.984 123.255 329.524C123.765 329.057 124.193 328.572 124.54 328.069C124.894 327.559 125.071 327.06 125.071 326.572C125.071 326.112 124.958 325.751 124.731 325.489C124.512 325.22 124.154 325.085 123.659 325.085C123.177 325.085 122.802 325.238 122.533 325.542C122.271 325.839 122.13 326.239 122.108 326.742H121.174C121.202 325.949 121.443 325.337 121.896 324.905C122.349 324.473 122.933 324.257 123.648 324.257C124.377 324.257 124.954 324.459 125.379 324.862C125.811 325.266 126.027 325.822 126.027 326.529C126.027 327.117 125.85 327.69 125.496 328.25C125.149 328.802 124.752 329.29 124.306 329.715C123.86 330.133 123.291 330.621 122.597 331.18H126.25V331.987H121.142V331.297ZM127.367 328.154C127.367 326.936 127.565 325.988 127.961 325.308C128.358 324.622 129.051 324.278 130.043 324.278C131.026 324.278 131.717 324.622 132.113 325.308C132.51 325.988 132.708 326.936 132.708 328.154C132.708 329.393 132.51 330.356 132.113 331.042C131.717 331.729 131.026 332.072 130.043 332.072C129.051 332.072 128.358 331.729 127.961 331.042C127.565 330.356 127.367 329.393 127.367 328.154ZM131.752 328.154C131.752 327.538 131.71 327.018 131.625 326.593C131.547 326.161 131.38 325.814 131.126 325.553C130.878 325.291 130.517 325.16 130.043 325.16C129.561 325.16 129.193 325.291 128.938 325.553C128.69 325.814 128.524 326.161 128.439 326.593C128.361 327.018 128.322 327.538 128.322 328.154C128.322 328.791 128.361 329.326 128.439 329.757C128.524 330.189 128.69 330.536 128.938 330.798C129.193 331.06 129.561 331.191 130.043 331.191C130.517 331.191 130.878 331.06 131.126 330.798C131.38 330.536 131.547 330.189 131.625 329.757C131.71 329.326 131.752 328.791 131.752 328.154ZM133.779 325.276V324.395H135.776V332.072H134.799V325.276H133.779ZM142.161 325.149L139.209 332.072H138.232L141.226 325.245H137.128V324.416H142.161V325.149Z" fill="black"/>
<path d="M54.397 331.297C55.296 330.575 56.0004 329.984 56.5101 329.524C57.0198 329.057 57.4481 328.572 57.7949 328.069C58.1489 327.559 58.3259 327.06 58.3259 326.572C58.3259 326.112 58.2126 325.751 57.9861 325.489C57.7666 325.22 57.4091 325.085 56.9136 325.085C56.4322 325.085 56.057 325.238 55.788 325.542C55.5261 325.839 55.3845 326.239 55.3633 326.742H54.4289C54.4572 325.949 54.6979 325.337 55.1509 324.905C55.604 324.473 56.188 324.257 56.903 324.257C57.6321 324.257 58.2091 324.459 58.6338 324.862C59.0656 325.266 59.2815 325.822 59.2815 326.529C59.2815 327.117 59.1046 327.69 58.7506 328.25C58.4037 328.802 58.0073 329.29 57.5613 329.715C57.1154 330.133 56.5455 330.621 55.8517 331.18H59.5045V331.987H54.397V331.297ZM60.6215 328.154C60.6215 326.936 60.8197 325.988 61.2162 325.308C61.6126 324.622 62.3063 324.278 63.2974 324.278C64.2814 324.278 64.9716 324.622 65.368 325.308C65.7644 325.988 65.9626 326.936 65.9626 328.154C65.9626 329.393 65.7644 330.356 65.368 331.042C64.9716 331.729 64.2814 332.072 63.2974 332.072C62.3063 332.072 61.6126 331.729 61.2162 331.042C60.8197 330.356 60.6215 329.393 60.6215 328.154ZM65.007 328.154C65.007 327.538 64.9645 327.018 64.8796 326.593C64.8017 326.161 64.6353 325.814 64.3805 325.553C64.1327 325.291 63.7717 325.16 63.2974 325.16C62.816 325.16 62.4479 325.291 62.1931 325.553C61.9453 325.814 61.779 326.161 61.694 326.593C61.6161 327.018 61.5772 327.538 61.5772 328.154C61.5772 328.791 61.6161 329.326 61.694 329.757C61.779 330.189 61.9453 330.536 62.1931 330.798C62.4479 331.06 62.816 331.191 63.2974 331.191C63.7717 331.191 64.1327 331.06 64.3805 330.798C64.6353 330.536 64.8017 330.189 64.8796 329.757C64.9645 329.326 65.007 328.791 65.007 328.154ZM67.0344 325.276V324.395H69.0306V332.072H68.0537V325.276H67.0344ZM74.9697 326.221C74.814 325.436 74.3291 325.043 73.515 325.043C72.8849 325.043 72.4142 325.287 72.1027 325.776C71.7912 326.257 71.639 327.053 71.6461 328.165C71.8089 327.797 72.0779 327.51 72.4531 327.305C72.8354 327.092 73.2601 326.986 73.7273 326.986C74.4565 326.986 75.037 327.213 75.4688 327.666C75.9077 328.119 76.1271 328.745 76.1271 329.545C76.1271 330.026 76.0316 330.458 75.8404 330.841C75.6564 331.223 75.3732 331.527 74.9909 331.754C74.6158 331.98 74.1592 332.094 73.6212 332.094C72.892 332.094 72.3222 331.931 71.9116 331.605C71.501 331.279 71.2143 330.83 71.0515 330.257C70.8887 329.683 70.8073 328.975 70.8073 328.133C70.8073 325.535 71.7134 324.236 73.5256 324.236C74.2193 324.236 74.7644 324.423 75.1608 324.799C75.5573 325.174 75.7909 325.648 75.8617 326.221H74.9697ZM73.5256 327.804C73.2212 327.804 72.9345 327.867 72.6655 327.995C72.3965 328.115 72.177 328.303 72.0071 328.558C71.8443 328.805 71.7629 329.11 71.7629 329.471C71.7629 330.009 71.9187 330.448 72.2301 330.787C72.5416 331.12 72.9876 331.287 73.5681 331.287C74.0636 331.287 74.4565 331.134 74.7467 330.83C75.044 330.518 75.1927 330.101 75.1927 329.577C75.1927 329.025 75.0511 328.593 74.768 328.281C74.4848 327.963 74.0707 327.804 73.5256 327.804Z" fill="black"/>
<path d="M36.9523 323.712C37.8513 322.99 38.5557 322.399 39.0654 321.939C39.5751 321.472 40.0034 320.987 40.3502 320.484C40.7042 319.975 40.8812 319.476 40.8812 318.987C40.8812 318.527 40.7679 318.166 40.5414 317.904C40.3219 317.635 39.9644 317.501 39.4689 317.501C38.9875 317.501 38.6123 317.653 38.3433 317.957C38.0814 318.254 37.9398 318.654 37.9186 319.157H36.9842C37.0125 318.364 37.2532 317.752 37.7062 317.32C38.1593 316.888 38.7433 316.672 39.4583 316.672C40.1874 316.672 40.7644 316.874 41.1891 317.278C41.6209 317.681 41.8368 318.237 41.8368 318.945C41.8368 319.532 41.6599 320.106 41.3059 320.665C40.959 321.217 40.5626 321.705 40.1166 322.13C39.6706 322.548 39.1008 323.036 38.407 323.596H42.0598V324.403H36.9523V323.712ZM43.1768 320.569C43.1768 319.352 43.375 318.403 43.7715 317.724C44.1679 317.037 44.8616 316.694 45.8527 316.694C46.8367 316.694 47.5269 317.037 47.9233 317.724C48.3197 318.403 48.5179 319.352 48.5179 320.569C48.5179 321.808 48.3197 322.771 47.9233 323.458C47.5269 324.144 46.8367 324.488 45.8527 324.488C44.8616 324.488 44.1679 324.144 43.7715 323.458C43.375 322.771 43.1768 321.808 43.1768 320.569ZM47.5623 320.569C47.5623 319.953 47.5198 319.433 47.4349 319.008C47.357 318.577 47.1906 318.23 46.9358 317.968C46.688 317.706 46.327 317.575 45.8527 317.575C45.3713 317.575 45.0032 317.706 44.7484 317.968C44.5006 318.23 44.3342 318.577 44.2493 319.008C44.1714 319.433 44.1325 319.953 44.1325 320.569C44.1325 321.206 44.1714 321.741 44.2493 322.173C44.3342 322.605 44.5006 322.951 44.7484 323.213C45.0032 323.475 45.3713 323.606 45.8527 323.606C46.327 323.606 46.688 323.475 46.9358 323.213C47.1906 322.951 47.357 322.605 47.4349 322.173C47.5198 321.741 47.5623 321.206 47.5623 320.569Z" fill="black"/>
<path d="M36.9523 266.828C37.8513 266.105 38.5557 265.514 39.0654 265.054C39.5751 264.587 40.0034 264.102 40.3502 263.599C40.7042 263.09 40.8812 262.591 40.8812 262.102C40.8812 261.642 40.7679 261.281 40.5414 261.019C40.3219 260.75 39.9644 260.616 39.4689 260.616C38.9875 260.616 38.6123 260.768 38.3433 261.072C38.0814 261.37 37.9398 261.77 37.9186 262.272H36.9842C37.0125 261.479 37.2532 260.867 37.7062 260.435C38.1593 260.003 38.7433 259.787 39.4583 259.787C40.1874 259.787 40.7644 259.989 41.1891 260.393C41.6209 260.796 41.8368 261.352 41.8368 262.06C41.8368 262.647 41.6599 263.221 41.3059 263.78C40.959 264.332 40.5626 264.821 40.1166 265.245C39.6706 265.663 39.1008 266.151 38.407 266.711H42.0598V267.518H36.9523V266.828ZM48.072 260.764H44.3449V263.185C44.5077 262.959 44.7484 262.775 45.0669 262.633C45.3855 262.485 45.7288 262.41 46.0969 262.41C46.6845 262.41 47.1623 262.534 47.5304 262.782C47.8985 263.023 48.1605 263.338 48.3162 263.727C48.479 264.109 48.5604 264.516 48.5604 264.948C48.5604 265.458 48.4648 265.914 48.2737 266.318C48.0826 266.721 47.7888 267.04 47.3924 267.273C47.003 267.507 46.5181 267.624 45.9376 267.624C45.1943 267.624 44.5926 267.433 44.1325 267.05C43.6724 266.668 43.3927 266.159 43.2936 265.521H44.2387C44.3307 265.925 44.5254 266.24 44.8227 266.466C45.12 266.693 45.4952 266.806 45.9483 266.806C46.5075 266.806 46.9287 266.64 47.2119 266.307C47.495 265.967 47.6366 265.521 47.6366 264.969C47.6366 264.417 47.495 263.992 47.2119 263.695C46.9287 263.391 46.511 263.238 45.9589 263.238C45.5837 263.238 45.2545 263.33 44.9714 263.515C44.6953 263.692 44.4935 263.936 44.3661 264.247H43.4529V259.915H48.072V260.764Z" fill="black"/>
<path d="M37.0479 204.973C37.0974 204.322 37.3487 203.812 37.8018 203.444C38.2548 203.076 38.8424 202.892 39.5645 202.892C40.0458 202.892 40.46 202.98 40.8068 203.157C41.1608 203.327 41.4262 203.561 41.6032 203.858C41.7873 204.156 41.8793 204.492 41.8793 204.867C41.8793 205.306 41.7519 205.685 41.497 206.003C41.2493 206.322 40.9236 206.527 40.5201 206.619V206.672C40.9803 206.785 41.3448 207.008 41.6138 207.341C41.8828 207.674 42.0173 208.109 42.0173 208.647C42.0173 209.051 41.9253 209.415 41.7413 209.741C41.5572 210.059 41.2811 210.311 40.913 210.495C40.5449 210.679 40.1025 210.771 39.5857 210.771C38.8353 210.771 38.2195 210.576 37.7381 210.187C37.2567 209.79 36.9877 209.231 36.9311 208.509H37.8655C37.9151 208.934 38.0885 209.281 38.3858 209.55C38.6831 209.819 39.0796 209.953 39.5751 209.953C40.0706 209.953 40.4458 209.826 40.7006 209.571C40.9626 209.309 41.0935 208.973 41.0935 208.562C41.0935 208.031 40.9166 207.649 40.5626 207.415C40.2087 207.182 39.6742 207.065 38.9592 207.065H38.715V206.258H38.9698C39.6211 206.251 40.1131 206.145 40.4458 205.939C40.7785 205.727 40.9449 205.401 40.9449 204.963C40.9449 204.587 40.821 204.286 40.5732 204.06C40.3325 203.833 39.9857 203.72 39.5326 203.72C39.0937 203.72 38.7398 203.833 38.4708 204.06C38.2018 204.286 38.0425 204.591 37.9929 204.973H37.0479ZM43.322 206.8C43.322 205.582 43.5202 204.633 43.9166 203.954C44.3131 203.267 45.0068 202.924 45.9979 202.924C46.9819 202.924 47.6721 203.267 48.0685 203.954C48.4649 204.633 48.6631 205.582 48.6631 206.8C48.6631 208.038 48.4649 209.001 48.0685 209.688C47.6721 210.374 46.9819 210.718 45.9979 210.718C45.0068 210.718 44.3131 210.374 43.9166 209.688C43.5202 209.001 43.322 208.038 43.322 206.8ZM47.7075 206.8C47.7075 206.184 47.665 205.663 47.58 205.239C47.5022 204.807 47.3358 204.46 47.081 204.198C46.8332 203.936 46.4722 203.805 45.9979 203.805C45.5165 203.805 45.1484 203.936 44.8935 204.198C44.6458 204.46 44.4794 204.807 44.3945 205.239C44.3166 205.663 44.2777 206.184 44.2777 206.8C44.2777 207.437 44.3166 207.971 44.3945 208.403C44.4794 208.835 44.6458 209.182 44.8935 209.444C45.1484 209.705 45.5165 209.836 45.9979 209.836C46.4722 209.836 46.8332 209.705 47.081 209.444C47.3358 209.182 47.5022 208.835 47.58 208.403C47.665 207.971 47.7075 207.437 47.7075 206.8Z" fill="black"/>
<path d="M37.0479 148.088C37.0974 147.437 37.3487 146.927 37.8018 146.559C38.2548 146.191 38.8424 146.007 39.5645 146.007C40.0458 146.007 40.46 146.096 40.8068 146.273C41.1608 146.442 41.4262 146.676 41.6032 146.973C41.7873 147.271 41.8793 147.607 41.8793 147.982C41.8793 148.421 41.7519 148.8 41.497 149.118C41.2493 149.437 40.9236 149.642 40.5201 149.734V149.787C40.9803 149.9 41.3448 150.123 41.6138 150.456C41.8828 150.789 42.0173 151.224 42.0173 151.762C42.0173 152.166 41.9253 152.53 41.7413 152.856C41.5572 153.175 41.2811 153.426 40.913 153.61C40.5449 153.794 40.1025 153.886 39.5857 153.886C38.8353 153.886 38.2195 153.691 37.7381 153.302C37.2567 152.906 36.9877 152.346 36.9311 151.624H37.8655C37.9151 152.049 38.0885 152.396 38.3858 152.665C38.6831 152.934 39.0796 153.068 39.5751 153.068C40.0706 153.068 40.4458 152.941 40.7006 152.686C40.9626 152.424 41.0935 152.088 41.0935 151.677C41.0935 151.146 40.9166 150.764 40.5626 150.531C40.2087 150.297 39.6742 150.18 38.9592 150.18H38.715V149.373H38.9698C39.6211 149.366 40.1131 149.26 40.4458 149.055C40.7785 148.842 40.9449 148.517 40.9449 148.078C40.9449 147.702 40.821 147.402 40.5732 147.175C40.3325 146.949 39.9857 146.835 39.5326 146.835C39.0937 146.835 38.7398 146.949 38.4708 147.175C38.2018 147.402 38.0425 147.706 37.9929 148.088H37.0479ZM48.2171 146.995H44.49V149.416C44.6529 149.189 44.8935 149.005 45.2121 148.863C45.5307 148.715 45.874 148.64 46.2421 148.64C46.8297 148.64 47.3075 148.764 47.6756 149.012C48.0437 149.253 48.3056 149.568 48.4614 149.957C48.6242 150.339 48.7056 150.746 48.7056 151.178C48.7056 151.688 48.61 152.145 48.4189 152.548C48.2278 152.952 47.934 153.27 47.5376 153.504C47.1482 153.737 46.6633 153.854 46.0828 153.854C45.3395 153.854 44.7378 153.663 44.2777 153.281C43.8175 152.898 43.5379 152.389 43.4388 151.752H44.3839C44.4759 152.155 44.6706 152.47 44.9679 152.697C45.2652 152.923 45.6404 153.036 46.0934 153.036C46.6527 153.036 47.0739 152.87 47.357 152.537C47.6402 152.198 47.7818 151.752 47.7818 151.199C47.7818 150.647 47.6402 150.223 47.357 149.925C47.0739 149.621 46.6562 149.469 46.1041 149.469C45.7289 149.469 45.3997 149.561 45.1165 149.745C44.8405 149.922 44.6387 150.166 44.5113 150.477H43.5981V146.145H48.2171V146.995Z" fill="black"/>
<path d="M36.8355 96.7554V96.0227L40.5626 90.8621H41.72V95.9165H42.7819V96.7554H41.72V98.4649H40.7644V96.7554H36.8355ZM40.8068 91.8708L37.9505 95.9165H40.8068V91.8708ZM43.7472 94.5467C43.7472 93.3291 43.9454 92.3805 44.3418 91.7009C44.7382 91.0143 45.432 90.6709 46.423 90.6709C47.407 90.6709 48.0972 91.0143 48.4936 91.7009C48.8901 92.3805 49.0883 93.3291 49.0883 94.5467C49.0883 95.7855 48.8901 96.7483 48.4936 97.4349C48.0972 98.1216 47.407 98.4649 46.423 98.4649C45.432 98.4649 44.7382 98.1216 44.3418 97.4349C43.9454 96.7483 43.7472 95.7855 43.7472 94.5467ZM48.1326 94.5467C48.1326 93.9308 48.0901 93.4105 48.0052 92.9858C47.9273 92.554 47.761 92.2071 47.5061 91.9452C47.2583 91.6832 46.8973 91.5523 46.423 91.5523C45.9417 91.5523 45.5735 91.6832 45.3187 91.9452C45.0709 92.2071 44.9046 92.554 44.8196 92.9858C44.7418 93.4105 44.7028 93.9308 44.7028 94.5467C44.7028 95.1838 44.7418 95.7183 44.8196 96.1501C44.9046 96.5819 45.0709 96.9288 45.3187 97.1907C45.5735 97.4526 45.9417 97.5836 46.423 97.5836C46.8973 97.5836 47.2583 97.4526 47.5061 97.1907C47.761 96.9288 47.9273 96.5819 48.0052 96.1501C48.0901 95.7183 48.1326 95.1838 48.1326 94.5467Z" fill="black"/>
<path d="M32.934 39.074H26.818L25.806 42H22.572L28.094 26.622H31.68L37.202 42H33.946L32.934 39.074ZM32.098 36.61L29.876 30.186L27.654 36.61H32.098ZM42.852 32.342V38.238C42.852 38.6487 42.9474 38.9493 43.138 39.14C43.3434 39.316 43.6807 39.404 44.15 39.404H45.58V42H43.644C41.048 42 39.75 40.7387 39.75 38.216V32.342H38.298V29.812H39.75V26.798H42.852V29.812H45.58V32.342H42.852ZM51.3813 32.342V38.238C51.3813 38.6487 51.4767 38.9493 51.6673 39.14C51.8727 39.316 52.21 39.404 52.6793 39.404H54.1093V42H52.1733C49.5773 42 48.2793 40.7387 48.2793 38.216V32.342H46.8273V29.812H48.2793V26.798H51.3813V29.812H54.1093V32.342H51.3813ZM67.6546 35.642C67.6546 36.082 67.6253 36.478 67.5666 36.83H58.6566C58.73 37.71 59.038 38.3993 59.5806 38.898C60.1233 39.3967 60.7906 39.646 61.5826 39.646C62.7266 39.646 63.5406 39.1547 64.0246 38.172H67.3466C66.9946 39.3453 66.32 40.3133 65.3226 41.076C64.3253 41.824 63.1006 42.198 61.6486 42.198C60.4753 42.198 59.4193 41.9413 58.4806 41.428C57.5566 40.9 56.8306 40.1593 56.3026 39.206C55.7893 38.2527 55.5326 37.1527 55.5326 35.906C55.5326 34.6447 55.7893 33.5373 56.3026 32.584C56.816 31.6307 57.5346 30.8973 58.4586 30.384C59.3826 29.8707 60.446 29.614 61.6486 29.614C62.8073 29.614 63.8413 29.8633 64.7506 30.362C65.6746 30.8607 66.386 31.572 66.8846 32.496C67.398 33.4053 67.6546 34.454 67.6546 35.642ZM64.4646 34.762C64.45 33.97 64.164 33.3393 63.6066 32.87C63.0493 32.386 62.3673 32.144 61.5606 32.144C60.798 32.144 60.1526 32.3787 59.6246 32.848C59.1113 33.3027 58.796 33.9407 58.6786 34.762H64.4646ZM76.6568 29.636C78.1088 29.636 79.2821 30.098 80.1768 31.022C81.0714 31.9313 81.5188 33.2073 81.5188 34.85V42H78.4388V35.268C78.4388 34.3 78.1968 33.5593 77.7128 33.046C77.2288 32.518 76.5688 32.254 75.7328 32.254C74.8821 32.254 74.2074 32.518 73.7088 33.046C73.2248 33.5593 72.9828 34.3 72.9828 35.268V42H69.9028V29.812H72.9828V31.33C73.3934 30.802 73.9141 30.3913 74.5448 30.098C75.1901 29.79 75.8941 29.636 76.6568 29.636ZM83.6557 35.862C83.6557 34.63 83.8977 33.5373 84.3817 32.584C84.8804 31.6307 85.555 30.8973 86.4057 30.384C87.2564 29.8707 88.2024 29.614 89.2437 29.614C90.0357 29.614 90.791 29.79 91.5097 30.142C92.2284 30.4793 92.8004 30.934 93.2257 31.506V25.72H96.3497V42H93.2257V40.196C92.8444 40.7973 92.309 41.2813 91.6197 41.648C90.9304 42.0147 90.131 42.198 89.2217 42.198C88.195 42.198 87.2564 41.934 86.4057 41.406C85.555 40.878 84.8804 40.1373 84.3817 39.184C83.8977 38.216 83.6557 37.1087 83.6557 35.862ZM93.2477 35.906C93.2477 35.158 93.101 34.52 92.8077 33.992C92.5144 33.4493 92.1184 33.0387 91.6197 32.76C91.121 32.4667 90.5857 32.32 90.0137 32.32C89.4417 32.32 88.9137 32.4593 88.4297 32.738C87.9457 33.0167 87.5497 33.4273 87.2417 33.97C86.9484 34.498 86.8017 35.1287 86.8017 35.862C86.8017 36.5953 86.9484 37.2407 87.2417 37.798C87.5497 38.3407 87.9457 38.7587 88.4297 39.052C88.9284 39.3453 89.4564 39.492 90.0137 39.492C90.5857 39.492 91.121 39.3527 91.6197 39.074C92.1184 38.7807 92.5144 38.37 92.8077 37.842C93.101 37.2993 93.2477 36.654 93.2477 35.906ZM98.5658 35.862C98.5658 34.63 98.8078 33.5373 99.2918 32.584C99.7905 31.6307 100.458 30.8973 101.294 30.384C102.145 29.8707 103.091 29.614 104.132 29.614C105.041 29.614 105.833 29.7973 106.508 30.164C107.197 30.5307 107.747 30.9927 108.158 31.55V29.812H111.26V42H108.158V40.218C107.762 40.79 107.212 41.2667 106.508 41.648C105.819 42.0147 105.019 42.198 104.11 42.198C103.083 42.198 102.145 41.934 101.294 41.406C100.458 40.878 99.7905 40.1373 99.2918 39.184C98.8078 38.216 98.5658 37.1087 98.5658 35.862ZM108.158 35.906C108.158 35.158 108.011 34.52 107.718 33.992C107.425 33.4493 107.029 33.0387 106.53 32.76C106.031 32.4667 105.496 32.32 104.924 32.32C104.352 32.32 103.824 32.4593 103.34 32.738C102.856 33.0167 102.46 33.4273 102.152 33.97C101.859 34.498 101.712 35.1287 101.712 35.862C101.712 36.5953 101.859 37.2407 102.152 37.798C102.46 38.3407 102.856 38.7587 103.34 39.052C103.839 39.3453 104.367 39.492 104.924 39.492C105.496 39.492 106.031 39.3527 106.53 39.074C107.029 38.7807 107.425 38.37 107.718 37.842C108.011 37.2993 108.158 36.654 108.158 35.906ZM121.022 29.636C122.474 29.636 123.647 30.098 124.542 31.022C125.437 31.9313 125.884 33.2073 125.884 34.85V42H122.804V35.268C122.804 34.3 122.562 33.5593 122.078 33.046C121.594 32.518 120.934 32.254 120.098 32.254C119.247 32.254 118.573 32.518 118.074 33.046C117.59 33.5593 117.348 34.3 117.348 35.268V42H114.268V29.812H117.348V31.33C117.759 30.802 118.279 30.3913 118.91 30.098C119.555 29.79 120.259 29.636 121.022 29.636ZM128.021 35.906C128.021 34.6447 128.278 33.5447 128.791 32.606C129.304 31.6527 130.016 30.9193 130.925 30.406C131.834 29.878 132.876 29.614 134.049 29.614C135.56 29.614 136.806 29.9953 137.789 30.758C138.786 31.506 139.454 32.562 139.791 33.926H136.469C136.293 33.398 135.992 32.9873 135.567 32.694C135.156 32.386 134.643 32.232 134.027 32.232C133.147 32.232 132.45 32.5547 131.937 33.2C131.424 33.8307 131.167 34.7327 131.167 35.906C131.167 37.0647 131.424 37.9667 131.937 38.612C132.45 39.2427 133.147 39.558 134.027 39.558C135.274 39.558 136.088 39.0007 136.469 37.886H139.791C139.454 39.206 138.786 40.2547 137.789 41.032C136.792 41.8093 135.545 42.198 134.049 42.198C132.876 42.198 131.834 41.9413 130.925 41.428C130.016 40.9 129.304 40.1667 128.791 39.228C128.278 38.2747 128.021 37.1673 128.021 35.906ZM153.377 35.642C153.377 36.082 153.348 36.478 153.289 36.83H144.379C144.453 37.71 144.761 38.3993 145.303 38.898C145.846 39.3967 146.513 39.646 147.305 39.646C148.449 39.646 149.263 39.1547 149.747 38.172H153.069C152.717 39.3453 152.043 40.3133 151.045 41.076C150.048 41.824 148.823 42.198 147.371 42.198C146.198 42.198 145.142 41.9413 144.203 41.428C143.279 40.9 142.553 40.1593 142.025 39.206C141.512 38.2527 141.255 37.1527 141.255 35.906C141.255 34.6447 141.512 33.5373 142.025 32.584C142.539 31.6307 143.257 30.8973 144.181 30.384C145.105 29.8707 146.169 29.614 147.371 29.614C148.53 29.614 149.564 29.8633 150.473 30.362C151.397 30.8607 152.109 31.572 152.607 32.496C153.121 33.4053 153.377 34.454 153.377 35.642ZM150.187 34.762C150.173 33.97 149.887 33.3393 149.329 32.87C148.772 32.386 148.09 32.144 147.283 32.144C146.521 32.144 145.875 32.3787 145.347 32.848C144.834 33.3027 144.519 33.9407 144.401 34.762H150.187Z" fill="black"/>
<path d="M166.976 43.976C165.952 42.9733 165.152 41.6987 164.576 40.152C164.011 38.6053 163.728 36.936 163.728 35.144C163.728 33.3093 164.027 31.5973 164.624 30.008C165.232 28.408 166.096 27.0907 167.216 26.056H168.736V26.2C167.541 27.32 166.64 28.6693 166.032 30.248C165.435 31.816 165.136 33.448 165.136 35.144C165.136 36.7973 165.419 38.376 165.984 39.88C166.56 41.384 167.397 42.7013 168.496 43.832V43.976H166.976ZM169.954 36.584C169.954 35.688 170.135 34.904 170.498 34.232C170.86 33.5493 171.356 33.0213 171.986 32.648C172.626 32.2747 173.335 32.088 174.114 32.088C174.882 32.088 175.548 32.2533 176.114 32.584C176.679 32.9147 177.1 33.3307 177.378 33.832V32.232H178.85V41H177.378V39.368C177.09 39.88 176.658 40.3067 176.082 40.648C175.516 40.9787 174.855 41.144 174.098 41.144C173.319 41.144 172.615 40.952 171.986 40.568C171.356 40.184 170.86 39.6453 170.498 38.952C170.135 38.2587 169.954 37.4693 169.954 36.584ZM177.378 36.6C177.378 35.9387 177.244 35.3627 176.978 34.872C176.711 34.3813 176.348 34.008 175.89 33.752C175.442 33.4853 174.946 33.352 174.402 33.352C173.858 33.352 173.362 33.48 172.914 33.736C172.466 33.992 172.108 34.3653 171.842 34.856C171.575 35.3467 171.442 35.9227 171.442 36.584C171.442 37.256 171.575 37.8427 171.842 38.344C172.108 38.8347 172.466 39.2133 172.914 39.48C173.362 39.736 173.858 39.864 174.402 39.864C174.946 39.864 175.442 39.736 175.89 39.48C176.348 39.2133 176.711 38.8347 176.978 38.344C177.244 37.8427 177.378 37.2613 177.378 36.6ZM183.086 33.432V38.6C183.086 39.0267 183.177 39.3307 183.358 39.512C183.539 39.6827 183.854 39.768 184.302 39.768H185.374V41H184.062C183.251 41 182.643 40.8133 182.238 40.44C181.833 40.0667 181.63 39.4533 181.63 38.6V33.432H180.494V32.232H181.63V30.024H183.086V32.232H185.374V33.432H183.086ZM199.212 29.848L195.58 36.792V41H194.124V36.792L190.476 29.848H192.092L194.844 35.496L197.596 29.848H199.212ZM208.748 36.28C208.748 36.5573 208.732 36.8507 208.7 37.16H201.692C201.745 38.024 202.038 38.7013 202.572 39.192C203.116 39.672 203.772 39.912 204.54 39.912C205.169 39.912 205.692 39.768 206.108 39.48C206.534 39.1813 206.833 38.7867 207.004 38.296H208.572C208.337 39.1387 207.868 39.8267 207.164 40.36C206.46 40.8827 205.585 41.144 204.54 41.144C203.708 41.144 202.961 40.9573 202.3 40.584C201.649 40.2107 201.137 39.6827 200.764 39C200.39 38.3067 200.204 37.5067 200.204 36.6C200.204 35.6933 200.385 34.8987 200.748 34.216C201.11 33.5333 201.617 33.0107 202.268 32.648C202.929 32.2747 203.686 32.088 204.54 32.088C205.372 32.088 206.108 32.2693 206.748 32.632C207.388 32.9947 207.878 33.496 208.22 34.136C208.572 34.7653 208.748 35.48 208.748 36.28ZM207.244 35.976C207.244 35.4213 207.121 34.9467 206.876 34.552C206.63 34.1467 206.294 33.8427 205.868 33.64C205.452 33.4267 204.988 33.32 204.476 33.32C203.74 33.32 203.11 33.5547 202.588 34.024C202.076 34.4933 201.782 35.144 201.708 35.976H207.244ZM214.286 32.088C215.043 32.088 215.704 32.2533 216.27 32.584C216.846 32.9147 217.272 33.3307 217.55 33.832V32.232H219.022V41.192C219.022 41.992 218.851 42.7013 218.51 43.32C218.168 43.9493 217.678 44.44 217.038 44.792C216.408 45.144 215.672 45.32 214.83 45.32C213.678 45.32 212.718 45.048 211.95 44.504C211.182 43.96 210.728 43.2187 210.59 42.28H212.03C212.19 42.8133 212.52 43.24 213.022 43.56C213.523 43.8907 214.126 44.056 214.83 44.056C215.63 44.056 216.28 43.8053 216.782 43.304C217.294 42.8027 217.55 42.0987 217.55 41.192V39.352C217.262 39.864 216.835 40.2907 216.27 40.632C215.704 40.9733 215.043 41.144 214.286 41.144C213.507 41.144 212.798 40.952 212.158 40.568C211.528 40.184 211.032 39.6453 210.67 38.952C210.307 38.2587 210.126 37.4693 210.126 36.584C210.126 35.688 210.307 34.904 210.67 34.232C211.032 33.5493 211.528 33.0213 212.158 32.648C212.798 32.2747 213.507 32.088 214.286 32.088ZM217.55 36.6C217.55 35.9387 217.416 35.3627 217.15 34.872C216.883 34.3813 216.52 34.008 216.062 33.752C215.614 33.4853 215.118 33.352 214.574 33.352C214.03 33.352 213.534 33.48 213.086 33.736C212.638 33.992 212.28 34.3653 212.014 34.856C211.747 35.3467 211.614 35.9227 211.614 36.584C211.614 37.256 211.747 37.8427 212.014 38.344C212.28 38.8347 212.638 39.2133 213.086 39.48C213.534 39.736 214.03 39.864 214.574 39.864C215.118 39.864 215.614 39.736 216.062 39.48C216.52 39.2133 216.883 38.8347 217.15 38.344C217.416 37.8427 217.55 37.2613 217.55 36.6ZM225.306 41.144C224.485 41.144 223.738 40.9573 223.066 40.584C222.405 40.2107 221.882 39.6827 221.498 39C221.125 38.3067 220.938 37.5067 220.938 36.6C220.938 35.704 221.13 34.9147 221.514 34.232C221.909 33.5387 222.442 33.0107 223.114 32.648C223.786 32.2747 224.538 32.088 225.37 32.088C226.202 32.088 226.954 32.2747 227.626 32.648C228.298 33.0107 228.826 33.5333 229.21 34.216C229.605 34.8987 229.802 35.6933 229.802 36.6C229.802 37.5067 229.599 38.3067 229.194 39C228.799 39.6827 228.261 40.2107 227.578 40.584C226.895 40.9573 226.138 41.144 225.306 41.144ZM225.306 39.864C225.829 39.864 226.319 39.7413 226.778 39.496C227.237 39.2507 227.605 38.8827 227.882 38.392C228.17 37.9013 228.314 37.304 228.314 36.6C228.314 35.896 228.175 35.2987 227.898 34.808C227.621 34.3173 227.258 33.9547 226.81 33.72C226.362 33.4747 225.877 33.352 225.354 33.352C224.821 33.352 224.33 33.4747 223.882 33.72C223.445 33.9547 223.093 34.3173 222.826 34.808C222.559 35.2987 222.426 35.896 222.426 36.6C222.426 37.3147 222.554 37.9173 222.81 38.408C223.077 38.8987 223.429 39.2667 223.866 39.512C224.303 39.7467 224.783 39.864 225.306 39.864ZM235.438 35.416C235.438 34.328 235.683 33.352 236.174 32.488C236.665 31.6133 237.331 30.9307 238.174 30.44C239.027 29.9493 239.971 29.704 241.006 29.704C242.222 29.704 243.283 29.9973 244.19 30.584C245.097 31.1707 245.758 32.0027 246.174 33.08H244.43C244.121 32.408 243.673 31.8907 243.086 31.528C242.51 31.1653 241.817 30.984 241.006 30.984C240.227 30.984 239.529 31.1653 238.91 31.528C238.291 31.8907 237.806 32.408 237.454 33.08C237.102 33.7413 236.926 34.52 236.926 35.416C236.926 36.3013 237.102 37.08 237.454 37.752C237.806 38.4133 238.291 38.9253 238.91 39.288C239.529 39.6507 240.227 39.832 241.006 39.832C241.817 39.832 242.51 39.656 243.086 39.304C243.673 38.9413 244.121 38.424 244.43 37.752H246.174C245.758 38.8187 245.097 39.6453 244.19 40.232C243.283 40.808 242.222 41.096 241.006 41.096C239.971 41.096 239.027 40.856 238.174 40.376C237.331 39.8853 236.665 39.208 236.174 38.344C235.683 37.48 235.438 36.504 235.438 35.416ZM256.341 36.28C256.341 36.5573 256.325 36.8507 256.293 37.16H249.285C249.339 38.024 249.632 38.7013 250.165 39.192C250.709 39.672 251.365 39.912 252.133 39.912C252.763 39.912 253.285 39.768 253.701 39.48C254.128 39.1813 254.427 38.7867 254.597 38.296H256.165C255.931 39.1387 255.461 39.8267 254.757 40.36C254.053 40.8827 253.179 41.144 252.133 41.144C251.301 41.144 250.555 40.9573 249.893 40.584C249.243 40.2107 248.731 39.6827 248.357 39C247.984 38.3067 247.797 37.5067 247.797 36.6C247.797 35.6933 247.979 34.8987 248.341 34.216C248.704 33.5333 249.211 33.0107 249.861 32.648C250.523 32.2747 251.28 32.088 252.133 32.088C252.965 32.088 253.701 32.2693 254.341 32.632C254.981 32.9947 255.472 33.496 255.813 34.136C256.165 34.7653 256.341 35.48 256.341 36.28ZM254.837 35.976C254.837 35.4213 254.715 34.9467 254.469 34.552C254.224 34.1467 253.888 33.8427 253.461 33.64C253.045 33.4267 252.581 33.32 252.069 33.32C251.333 33.32 250.704 33.5547 250.181 34.024C249.669 34.4933 249.376 35.144 249.301 35.976H254.837ZM262.535 32.072C263.602 32.072 264.466 32.3973 265.127 33.048C265.789 33.688 266.119 34.616 266.119 35.832V41H264.679V36.04C264.679 35.1653 264.461 34.4987 264.023 34.04C263.586 33.5707 262.989 33.336 262.231 33.336C261.463 33.336 260.85 33.576 260.391 34.056C259.943 34.536 259.719 35.2347 259.719 36.152V41H258.263V32.232H259.719V33.48C260.007 33.032 260.397 32.6853 260.887 32.44C261.389 32.1947 261.938 32.072 262.535 32.072ZM270.274 33.432V38.6C270.274 39.0267 270.364 39.3307 270.546 39.512C270.727 39.6827 271.042 39.768 271.49 39.768H272.562V41H271.25C270.439 41 269.831 40.8133 269.426 40.44C269.02 40.0667 268.818 39.4533 268.818 38.6V33.432H267.682V32.232H268.818V30.024H270.274V32.232H272.562V33.432H270.274ZM282.326 36.28C282.326 36.5573 282.31 36.8507 282.278 37.16H275.27C275.323 38.024 275.616 38.7013 276.15 39.192C276.694 39.672 277.35 39.912 278.118 39.912C278.747 39.912 279.27 39.768 279.686 39.48C280.112 39.1813 280.411 38.7867 280.582 38.296H282.15C281.915 39.1387 281.446 39.8267 280.742 40.36C280.038 40.8827 279.163 41.144 278.118 41.144C277.286 41.144 276.539 40.9573 275.878 40.584C275.227 40.2107 274.715 39.6827 274.342 39C273.968 38.3067 273.782 37.5067 273.782 36.6C273.782 35.6933 273.963 34.8987 274.326 34.216C274.688 33.5333 275.195 33.0107 275.846 32.648C276.507 32.2747 277.264 32.088 278.118 32.088C278.95 32.088 279.686 32.2693 280.326 32.632C280.966 32.9947 281.456 33.496 281.798 34.136C282.15 34.7653 282.326 35.48 282.326 36.28ZM280.822 35.976C280.822 35.4213 280.699 34.9467 280.454 34.552C280.208 34.1467 279.872 33.8427 279.446 33.64C279.03 33.4267 278.566 33.32 278.054 33.32C277.318 33.32 276.688 33.5547 276.166 34.024C275.654 34.4933 275.36 35.144 275.286 35.976H280.822ZM285.704 33.656C285.96 33.1547 286.322 32.7653 286.792 32.488C287.272 32.2107 287.853 32.072 288.536 32.072V33.576H288.152C286.52 33.576 285.704 34.4613 285.704 36.232V41H284.248V32.232H285.704V33.656ZM293.32 41.144C292.648 41.144 292.046 41.032 291.512 40.808C290.979 40.5733 290.558 40.2533 290.248 39.848C289.939 39.432 289.768 38.9573 289.736 38.424H291.24C291.283 38.8613 291.486 39.2187 291.848 39.496C292.222 39.7733 292.707 39.912 293.304 39.912C293.859 39.912 294.296 39.7893 294.616 39.544C294.936 39.2987 295.096 38.9893 295.096 38.616C295.096 38.232 294.926 37.9493 294.584 37.768C294.243 37.576 293.715 37.3893 293 37.208C292.35 37.0373 291.816 36.8667 291.4 36.696C290.995 36.5147 290.643 36.2533 290.344 35.912C290.056 35.56 289.912 35.1013 289.912 34.536C289.912 34.088 290.046 33.6773 290.312 33.304C290.579 32.9307 290.958 32.6373 291.448 32.424C291.939 32.2 292.499 32.088 293.128 32.088C294.099 32.088 294.883 32.3333 295.48 32.824C296.078 33.3147 296.398 33.9867 296.44 34.84H294.984C294.952 34.3813 294.766 34.0133 294.424 33.736C294.094 33.4587 293.646 33.32 293.08 33.32C292.558 33.32 292.142 33.432 291.832 33.656C291.523 33.88 291.368 34.1733 291.368 34.536C291.368 34.824 291.459 35.064 291.64 35.256C291.832 35.4373 292.067 35.5867 292.344 35.704C292.632 35.8107 293.027 35.9333 293.528 36.072C294.158 36.2427 294.67 36.4133 295.064 36.584C295.459 36.744 295.795 36.9893 296.072 37.32C296.36 37.6507 296.51 38.0827 296.52 38.616C296.52 39.096 296.387 39.528 296.12 39.912C295.854 40.296 295.475 40.6 294.984 40.824C294.504 41.0373 293.95 41.144 293.32 41.144ZM298.112 43.976V43.832C299.21 42.7013 300.042 41.384 300.608 39.88C301.184 38.376 301.472 36.7973 301.472 35.144C301.472 33.448 301.168 31.816 300.56 30.248C299.962 28.6693 299.066 27.32 297.872 26.2V26.056H299.392C300.512 27.0907 301.37 28.408 301.968 30.008C302.576 31.5973 302.88 33.3093 302.88 35.144C302.88 36.936 302.592 38.6053 302.016 40.152C301.45 41.6987 300.656 42.9733 299.632 43.976H298.112Z" fill="#767474"/>
<path d="M64.0947 301.49L131.977 234.366H199.481L269.639 138.42L337.521 247.639L406.921 164.208L474.424 147.521L543.824 97.4628" stroke="#DA2929" stroke-width="1.51693"/>
<path d="M66.3701 71.2958L130.081 107.702L200.239 194.926L268.88 128.939L339.038 281.011L414.506 157.002L542.307 91.0159" stroke="#DBAE0D" stroke-width="1.51693"/>
<path d="M64.0947 233.607L131.977 157.381L201.377 224.126L268.88 191.892L338.28 255.603L474.424 110.736L544.582 120.217" stroke="#22A7C5" stroke-width="0.758465"/>
<path d="M60.3022 68.2618V308.316L544.582 303.765" stroke="#DFDFDF" stroke-width="0.758465"/>
<path d="M60.6816 261.671L545.72 260.912" stroke="#DFDFDF" stroke-width="0.758465"/>
<path d="M60.3022 209.336H544.203" stroke="#DFDFDF" stroke-width="0.758465"/>
<path d="M60.3022 153.21H544.203" stroke="#DFDFDF" stroke-width="0.758465"/>
<path d="M60.3022 94.8081H544.203" stroke="#DFDFDF" stroke-width="0.758465"/>
<path d="M466.459 33.475V31.2256H470.662V43.9375H468.151V33.475H466.459ZM476.98 41.3742L474.939 46.2741H473.37L474.503 41.3742H476.98ZM481.547 37.2066C480.384 36.6021 479.803 35.6663 479.803 34.3992C479.803 33.7714 479.96 33.2018 480.274 32.6903C480.599 32.1672 481.082 31.7545 481.721 31.4522C482.372 31.1384 483.162 30.9814 484.092 30.9814C485.022 30.9814 485.807 31.1384 486.447 31.4522C487.098 31.7545 487.58 32.1672 487.894 32.6903C488.219 33.2018 488.382 33.7714 488.382 34.3992C488.382 35.0386 488.225 35.6024 487.911 36.0906C487.597 36.5672 487.179 36.9392 486.656 37.2066C487.295 37.4856 487.795 37.8925 488.155 38.4272C488.516 38.962 488.696 39.5956 488.696 40.3279C488.696 41.1184 488.493 41.8101 488.086 42.403C487.69 42.9842 487.144 43.4318 486.447 43.7457C485.749 44.0596 484.964 44.2165 484.092 44.2165C483.221 44.2165 482.436 44.0596 481.738 43.7457C481.053 43.4318 480.506 42.9842 480.099 42.403C479.704 41.8101 479.506 41.1184 479.506 40.3279C479.506 39.5956 479.687 38.962 480.047 38.4272C480.407 37.8809 480.907 37.474 481.547 37.2066ZM486.011 34.7479C486.011 34.1783 485.836 33.7366 485.487 33.4227C485.15 33.1088 484.685 32.9519 484.092 32.9519C483.511 32.9519 483.046 33.1088 482.697 33.4227C482.36 33.7366 482.192 34.1841 482.192 34.7654C482.192 35.2885 482.366 35.707 482.715 36.0209C483.075 36.3347 483.534 36.4917 484.092 36.4917C484.65 36.4917 485.11 36.3347 485.47 36.0209C485.83 35.6954 486.011 35.2711 486.011 34.7479ZM484.092 38.2703C483.43 38.2703 482.889 38.4389 482.471 38.776C482.064 39.1131 481.86 39.5956 481.86 40.2233C481.86 40.8046 482.058 41.2812 482.453 41.6532C482.86 42.0136 483.407 42.1937 484.092 42.1937C484.778 42.1937 485.319 42.0077 485.714 41.6358C486.109 41.2637 486.307 40.7929 486.307 40.2233C486.307 39.6072 486.104 39.1306 485.697 38.7934C485.29 38.4447 484.755 38.2703 484.092 38.2703ZM493.711 37.2066C492.548 36.6021 491.967 35.6663 491.967 34.3992C491.967 33.7714 492.124 33.2018 492.438 32.6903C492.763 32.1672 493.246 31.7545 493.885 31.4522C494.536 31.1384 495.326 30.9814 496.256 30.9814C497.186 30.9814 497.971 31.1384 498.611 31.4522C499.262 31.7545 499.744 32.1672 500.058 32.6903C500.383 33.2018 500.546 33.7714 500.546 34.3992C500.546 35.0386 500.389 35.6024 500.075 36.0906C499.761 36.5672 499.343 36.9392 498.82 37.2066C499.459 37.4856 499.959 37.8925 500.319 38.4272C500.68 38.962 500.86 39.5956 500.86 40.3279C500.86 41.1184 500.657 41.8101 500.25 42.403C499.854 42.9842 499.308 43.4318 498.611 43.7457C497.913 44.0596 497.128 44.2165 496.256 44.2165C495.385 44.2165 494.6 44.0596 493.902 43.7457C493.217 43.4318 492.67 42.9842 492.263 42.403C491.868 41.8101 491.67 41.1184 491.67 40.3279C491.67 39.5956 491.851 38.962 492.211 38.4272C492.571 37.8809 493.071 37.474 493.711 37.2066ZM498.175 34.7479C498.175 34.1783 498 33.7366 497.651 33.4227C497.314 33.1088 496.849 32.9519 496.256 32.9519C495.675 32.9519 495.21 33.1088 494.861 33.4227C494.524 33.7366 494.356 34.1841 494.356 34.7654C494.356 35.2885 494.53 35.707 494.879 36.0209C495.239 36.3347 495.698 36.4917 496.256 36.4917C496.814 36.4917 497.274 36.3347 497.634 36.0209C497.994 35.6954 498.175 35.2711 498.175 34.7479ZM496.256 38.2703C495.594 38.2703 495.053 38.4389 494.635 38.776C494.228 39.1131 494.024 39.5956 494.024 40.2233C494.024 40.8046 494.222 41.2812 494.617 41.6532C495.024 42.0136 495.571 42.1937 496.256 42.1937C496.942 42.1937 497.483 42.0077 497.878 41.6358C498.273 41.2637 498.471 40.7929 498.471 40.2233C498.471 39.6072 498.268 39.1306 497.861 38.7934C497.454 38.4447 496.919 38.2703 496.256 38.2703ZM503.451 33.475V31.2256H507.653V43.9375H505.142V33.475H503.451ZM513.971 41.3742L511.931 46.2741H510.361L511.495 41.3742H513.971ZM517.178 41.1824C518.294 40.2524 519.183 39.4793 519.846 38.8632C520.508 38.2354 521.061 37.5844 521.502 36.9102C521.944 36.2359 522.165 35.5733 522.165 34.9223C522.165 34.3294 522.025 33.8644 521.746 33.5273C521.467 33.1902 521.037 33.0216 520.456 33.0216C519.875 33.0216 519.427 33.2192 519.113 33.6145C518.799 33.9981 518.637 34.5271 518.625 35.2013H516.254C516.3 33.8063 516.713 32.7484 517.492 32.0277C518.282 31.3069 519.282 30.9466 520.491 30.9466C521.816 30.9466 522.833 31.3011 523.542 32.0102C524.252 32.7077 524.606 33.6319 524.606 34.7828C524.606 35.6896 524.362 36.5556 523.874 37.381C523.386 38.2064 522.828 38.9271 522.2 39.5432C521.572 40.1477 520.752 40.8801 519.741 41.7404H524.885V43.7631H516.271V41.9496L517.178 41.1824ZM535.927 33.3355H530.277V36.3173C530.521 36.0151 530.87 35.7709 531.323 35.5849C531.777 35.3873 532.259 35.2885 532.771 35.2885C533.701 35.2885 534.462 35.4919 535.055 35.8988C535.648 36.3057 536.078 36.8288 536.345 37.4682C536.613 38.0959 536.746 38.7702 536.746 39.4909C536.746 40.8278 536.363 41.9031 535.596 42.7169C534.84 43.5306 533.759 43.9375 532.352 43.9375C531.027 43.9375 529.969 43.6062 529.179 42.9436C528.388 42.2809 527.941 41.4149 527.836 40.3454H530.207C530.312 40.8104 530.545 41.1824 530.905 41.4614C531.277 41.7404 531.748 41.8799 532.317 41.8799C533.003 41.8799 533.521 41.6648 533.869 41.2347C534.218 40.8046 534.392 40.2349 534.392 39.5258C534.392 38.8051 534.212 38.2587 533.852 37.8867C533.503 37.5031 532.986 37.3112 532.3 37.3112C531.812 37.3112 531.405 37.4333 531.079 37.6774C530.754 37.9216 530.521 38.2471 530.382 38.6539H528.045V31.1907H535.927V33.3355ZM546.155 34.3992C546.039 33.9109 545.835 33.5447 545.545 33.3006C545.266 33.0565 544.859 32.9344 544.324 32.9344C543.522 32.9344 542.929 33.2599 542.545 33.9109C542.173 34.5503 541.982 35.5966 541.97 37.0497C542.249 36.5847 542.656 36.2243 543.191 35.9686C543.725 35.7012 544.307 35.5675 544.934 35.5675C545.69 35.5675 546.358 35.7302 546.94 36.0557C547.521 36.3812 547.974 36.8579 548.3 37.4856C548.625 38.1017 548.788 38.8457 548.788 39.7176C548.788 40.543 548.619 41.2812 548.282 41.9322C547.957 42.5716 547.474 43.0714 546.835 43.4318C546.196 43.7922 545.434 43.9724 544.551 43.9724C543.342 43.9724 542.388 43.705 541.691 43.1702C541.005 42.6355 540.523 41.8915 540.244 40.9382C539.976 39.9734 539.843 38.7876 539.843 37.381C539.843 35.2536 540.209 33.6494 540.941 32.5682C541.674 31.4755 542.83 30.9291 544.411 30.9291C545.632 30.9291 546.579 31.2604 547.254 31.9231C547.928 32.5857 548.317 33.4111 548.422 34.3992H546.155ZM544.376 37.5728C543.76 37.5728 543.243 37.753 542.824 38.1134C542.406 38.4737 542.197 38.9969 542.197 39.6827C542.197 40.3686 542.388 40.9092 542.772 41.3044C543.167 41.6997 543.72 41.8973 544.429 41.8973C545.056 41.8973 545.55 41.7055 545.911 41.3219C546.283 40.9382 546.469 40.4209 546.469 39.7699C546.469 39.0957 546.289 38.5609 545.928 38.1657C545.58 37.7704 545.062 37.5728 544.376 37.5728Z" fill="black"/>
</svg>
