<svg width="533" height="336" viewBox="0 0 533 336" fill="none" xmlns="http://www.w3.org/2000/svg">
<path d="M507.196 331.297C508.095 330.575 508.8 329.984 509.309 329.524C509.819 329.057 510.247 328.572 510.594 328.069C510.948 327.559 511.125 327.06 511.125 326.572C511.125 326.112 511.012 325.751 510.785 325.489C510.566 325.22 510.208 325.085 509.713 325.085C509.232 325.085 508.856 325.238 508.587 325.542C508.325 325.839 508.184 326.239 508.163 326.742H507.228C507.257 325.949 507.497 325.337 507.95 324.905C508.403 324.473 508.987 324.257 509.702 324.257C510.431 324.257 511.008 324.459 511.433 324.862C511.865 325.266 512.081 325.822 512.081 326.529C512.081 327.117 511.904 327.69 511.55 328.25C511.203 328.802 510.807 329.29 510.361 329.715C509.915 330.133 509.345 330.621 508.651 331.18H512.304V331.987H507.196V331.297ZM513.421 328.154C513.421 326.936 513.619 325.988 514.015 325.308C514.412 324.622 515.106 324.278 516.097 324.278C517.081 324.278 517.771 324.622 518.167 325.308C518.564 325.988 518.762 326.936 518.762 328.154C518.762 329.393 518.564 330.356 518.167 331.042C517.771 331.729 517.081 332.072 516.097 332.072C515.106 332.072 514.412 331.729 514.015 331.042C513.619 330.356 513.421 329.393 513.421 328.154ZM517.806 328.154C517.806 327.538 517.764 327.018 517.679 326.593C517.601 326.161 517.435 325.814 517.18 325.553C516.932 325.291 516.571 325.16 516.097 325.16C515.615 325.16 515.247 325.291 514.992 325.553C514.745 325.814 514.578 326.161 514.493 326.593C514.415 327.018 514.377 327.538 514.377 328.154C514.377 328.791 514.415 329.326 514.493 329.757C514.578 330.189 514.745 330.536 514.992 330.798C515.247 331.06 515.615 331.191 516.097 331.191C516.571 331.191 516.932 331.06 517.18 330.798C517.435 330.536 517.601 330.189 517.679 329.757C517.764 329.326 517.806 328.791 517.806 328.154ZM519.972 331.297C520.871 330.575 521.575 329.984 522.085 329.524C522.594 329.057 523.023 328.572 523.37 328.069C523.724 327.559 523.901 327.06 523.901 326.572C523.901 326.112 523.787 325.751 523.561 325.489C523.341 325.22 522.984 325.085 522.488 325.085C522.007 325.085 521.632 325.238 521.363 325.542C521.101 325.839 520.959 326.239 520.938 326.742H520.004C520.032 325.949 520.273 325.337 520.726 324.905C521.179 324.473 521.763 324.257 522.478 324.257C523.207 324.257 523.784 324.459 524.209 324.862C524.64 325.266 524.856 325.822 524.856 326.529C524.856 327.117 524.679 327.69 524.325 328.25C523.978 328.802 523.582 329.29 523.136 329.715C522.69 330.133 522.12 330.621 521.426 331.18H525.079V331.987H519.972V331.297ZM526.175 326.328C526.225 325.676 526.476 325.167 526.929 324.799C527.382 324.431 527.97 324.246 528.692 324.246C529.173 324.246 529.587 324.335 529.934 324.512C530.288 324.682 530.553 324.915 530.73 325.213C530.914 325.51 531.006 325.846 531.006 326.221C531.006 326.66 530.879 327.039 530.624 327.358C530.376 327.676 530.051 327.882 529.647 327.974V328.027C530.107 328.14 530.472 328.363 530.741 328.696C531.01 329.028 531.144 329.464 531.144 330.002C531.144 330.405 531.052 330.77 530.868 331.095C530.684 331.414 530.408 331.665 530.04 331.849C529.672 332.033 529.23 332.125 528.713 332.125C527.962 332.125 527.347 331.931 526.865 331.541C526.384 331.145 526.115 330.586 526.058 329.864H526.993C527.042 330.288 527.216 330.635 527.513 330.904C527.81 331.173 528.207 331.308 528.702 331.308C529.198 331.308 529.573 331.18 529.828 330.925C530.09 330.664 530.221 330.327 530.221 329.917C530.221 329.386 530.044 329.004 529.69 328.77C529.336 328.536 528.801 328.42 528.086 328.42H527.842V327.613H528.097C528.748 327.605 529.24 327.499 529.573 327.294C529.906 327.082 530.072 326.756 530.072 326.317C530.072 325.942 529.948 325.641 529.7 325.414C529.46 325.188 529.113 325.075 528.66 325.075C528.221 325.075 527.867 325.188 527.598 325.414C527.329 325.641 527.17 325.945 527.12 326.328H526.175Z" fill="black"/>
<path d="M441.968 331.297C442.867 330.575 443.572 329.984 444.081 329.524C444.591 329.057 445.019 328.572 445.366 328.069C445.72 327.559 445.897 327.06 445.897 326.572C445.897 326.112 445.784 325.751 445.557 325.489C445.338 325.22 444.98 325.085 444.485 325.085C444.004 325.085 443.628 325.238 443.359 325.542C443.097 325.839 442.956 326.239 442.935 326.742H442C442.028 325.949 442.269 325.337 442.722 324.905C443.175 324.473 443.759 324.257 444.474 324.257C445.203 324.257 445.78 324.459 446.205 324.862C446.637 325.266 446.853 325.822 446.853 326.529C446.853 327.117 446.676 327.69 446.322 328.25C445.975 328.802 445.579 329.29 445.133 329.715C444.687 330.133 444.117 330.621 443.423 331.18H447.076V331.987H441.968V331.297ZM448.193 328.154C448.193 326.936 448.391 325.988 448.787 325.308C449.184 324.622 449.878 324.278 450.869 324.278C451.853 324.278 452.543 324.622 452.939 325.308C453.336 325.988 453.534 326.936 453.534 328.154C453.534 329.393 453.336 330.356 452.939 331.042C452.543 331.729 451.853 332.072 450.869 332.072C449.878 332.072 449.184 331.729 448.787 331.042C448.391 330.356 448.193 329.393 448.193 328.154ZM452.578 328.154C452.578 327.538 452.536 327.018 452.451 326.593C452.373 326.161 452.207 325.814 451.952 325.553C451.704 325.291 451.343 325.16 450.869 325.16C450.387 325.16 450.019 325.291 449.764 325.553C449.517 325.814 449.35 326.161 449.265 326.593C449.187 327.018 449.148 327.538 449.148 328.154C449.148 328.791 449.187 329.326 449.265 329.757C449.35 330.189 449.517 330.536 449.764 330.798C450.019 331.06 450.387 331.191 450.869 331.191C451.343 331.191 451.704 331.06 451.952 330.798C452.207 330.536 452.373 330.189 452.451 329.757C452.536 329.326 452.578 328.791 452.578 328.154ZM454.744 331.297C455.643 330.575 456.347 329.984 456.857 329.524C457.366 329.057 457.795 328.572 458.142 328.069C458.496 327.559 458.673 327.06 458.673 326.572C458.673 326.112 458.559 325.751 458.333 325.489C458.113 325.22 457.756 325.085 457.26 325.085C456.779 325.085 456.404 325.238 456.135 325.542C455.873 325.839 455.731 326.239 455.71 326.742H454.776C454.804 325.949 455.045 325.337 455.498 324.905C455.951 324.473 456.535 324.257 457.25 324.257C457.979 324.257 458.556 324.459 458.98 324.862C459.412 325.266 459.628 325.822 459.628 326.529C459.628 327.117 459.451 327.69 459.097 328.25C458.75 328.802 458.354 329.29 457.908 329.715C457.462 330.133 456.892 330.621 456.198 331.18H459.851V331.987H454.744V331.297ZM460.851 331.297C461.75 330.575 462.455 329.984 462.964 329.524C463.474 329.057 463.902 328.572 464.249 328.069C464.603 327.559 464.78 327.06 464.78 326.572C464.78 326.112 464.667 325.751 464.44 325.489C464.221 325.22 463.864 325.085 463.368 325.085C462.887 325.085 462.511 325.238 462.242 325.542C461.981 325.839 461.839 326.239 461.818 326.742H460.883C460.912 325.949 461.152 325.337 461.605 324.905C462.058 324.473 462.642 324.257 463.357 324.257C464.087 324.257 464.663 324.459 465.088 324.862C465.52 325.266 465.736 325.822 465.736 326.529C465.736 327.117 465.559 327.69 465.205 328.25C464.858 328.802 464.462 329.29 464.016 329.715C463.57 330.133 463 330.621 462.306 331.18H465.959V331.987H460.851V331.297Z" fill="black"/>
<path d="M372.948 331.297C373.847 330.575 374.551 329.984 375.061 329.524C375.571 329.057 375.999 328.572 376.346 328.069C376.7 327.559 376.877 327.06 376.877 326.572C376.877 326.112 376.763 325.751 376.537 325.489C376.317 325.22 375.96 325.085 375.464 325.085C374.983 325.085 374.608 325.238 374.339 325.542C374.077 325.839 373.935 326.239 373.914 326.742H372.98C373.008 325.949 373.249 325.337 373.702 324.905C374.155 324.473 374.739 324.257 375.454 324.257C376.183 324.257 376.76 324.459 377.185 324.862C377.616 325.266 377.832 325.822 377.832 326.529C377.832 327.117 377.655 327.69 377.301 328.25C376.955 328.802 376.558 329.29 376.112 329.715C375.666 330.133 375.096 330.621 374.403 331.18H378.055V331.987H372.948V331.297ZM379.172 328.154C379.172 326.936 379.371 325.988 379.767 325.308C380.163 324.622 380.857 324.278 381.848 324.278C382.832 324.278 383.522 324.622 383.919 325.308C384.315 325.988 384.513 326.936 384.513 328.154C384.513 329.393 384.315 330.356 383.919 331.042C383.522 331.729 382.832 332.072 381.848 332.072C380.857 332.072 380.163 331.729 379.767 331.042C379.371 330.356 379.172 329.393 379.172 328.154ZM383.558 328.154C383.558 327.538 383.515 327.018 383.43 326.593C383.352 326.161 383.186 325.814 382.931 325.553C382.684 325.291 382.322 325.16 381.848 325.16C381.367 325.16 380.999 325.291 380.744 325.553C380.496 325.814 380.33 326.161 380.245 326.593C380.167 327.018 380.128 327.538 380.128 328.154C380.128 328.791 380.167 329.326 380.245 329.757C380.33 330.189 380.496 330.536 380.744 330.798C380.999 331.06 381.367 331.191 381.848 331.191C382.322 331.191 382.684 331.06 382.931 330.798C383.186 330.536 383.352 330.189 383.43 329.757C383.515 329.326 383.558 328.791 383.558 328.154ZM385.723 331.297C386.622 330.575 387.327 329.984 387.836 329.524C388.346 329.057 388.774 328.572 389.121 328.069C389.475 327.559 389.652 327.06 389.652 326.572C389.652 326.112 389.539 325.751 389.312 325.489C389.093 325.22 388.735 325.085 388.24 325.085C387.758 325.085 387.383 325.238 387.114 325.542C386.852 325.839 386.711 326.239 386.689 326.742H385.755C385.783 325.949 386.024 325.337 386.477 324.905C386.93 324.473 387.514 324.257 388.229 324.257C388.958 324.257 389.535 324.459 389.96 324.862C390.392 325.266 390.608 325.822 390.608 326.529C390.608 327.117 390.431 327.69 390.077 328.25C389.73 328.802 389.333 329.29 388.888 329.715C388.442 330.133 387.872 330.621 387.178 331.18H390.831V331.987H385.723V331.297ZM391.693 325.276V324.395H393.689V332.072H392.712V325.276H391.693Z" fill="black"/>
<path d="M303.928 331.297C304.827 330.575 305.531 329.984 306.041 329.524C306.55 329.057 306.979 328.572 307.325 328.069C307.679 327.559 307.856 327.06 307.856 326.572C307.856 326.112 307.743 325.751 307.517 325.489C307.297 325.22 306.94 325.085 306.444 325.085C305.963 325.085 305.588 325.238 305.319 325.542C305.057 325.839 304.915 326.239 304.894 326.742H303.959C303.988 325.949 304.228 325.337 304.681 324.905C305.135 324.473 305.719 324.257 306.433 324.257C307.163 324.257 307.74 324.459 308.164 324.862C308.596 325.266 308.812 325.822 308.812 326.529C308.812 327.117 308.635 327.69 308.281 328.25C307.934 328.802 307.538 329.29 307.092 329.715C306.646 330.133 306.076 330.621 305.382 331.18H309.035V331.987H303.928V331.297ZM310.152 328.154C310.152 326.936 310.35 325.988 310.747 325.308C311.143 324.622 311.837 324.278 312.828 324.278C313.812 324.278 314.502 324.622 314.899 325.308C315.295 325.988 315.493 326.936 315.493 328.154C315.493 329.393 315.295 330.356 314.899 331.042C314.502 331.729 313.812 332.072 312.828 332.072C311.837 332.072 311.143 331.729 310.747 331.042C310.35 330.356 310.152 329.393 310.152 328.154ZM314.537 328.154C314.537 327.538 314.495 327.018 314.41 326.593C314.332 326.161 314.166 325.814 313.911 325.553C313.663 325.291 313.302 325.16 312.828 325.16C312.347 325.16 311.978 325.291 311.724 325.553C311.476 325.814 311.309 326.161 311.225 326.593C311.147 327.018 311.108 327.538 311.108 328.154C311.108 328.791 311.147 329.326 311.225 329.757C311.309 330.189 311.476 330.536 311.724 330.798C311.978 331.06 312.347 331.191 312.828 331.191C313.302 331.191 313.663 331.06 313.911 330.798C314.166 330.536 314.332 330.189 314.41 329.757C314.495 329.326 314.537 328.791 314.537 328.154ZM316.703 331.297C317.602 330.575 318.306 329.984 318.816 329.524C319.326 329.057 319.754 328.572 320.101 328.069C320.455 327.559 320.632 327.06 320.632 326.572C320.632 326.112 320.519 325.751 320.292 325.489C320.073 325.22 319.715 325.085 319.22 325.085C318.738 325.085 318.363 325.238 318.094 325.542C317.832 325.839 317.69 326.239 317.669 326.742H316.735C316.763 325.949 317.004 325.337 317.457 324.905C317.91 324.473 318.494 324.257 319.209 324.257C319.938 324.257 320.515 324.459 320.94 324.862C321.372 325.266 321.587 325.822 321.587 326.529C321.587 327.117 321.41 327.69 321.057 328.25C320.71 328.802 320.313 329.29 319.867 329.715C319.421 330.133 318.851 330.621 318.158 331.18H321.81V331.987H316.703V331.297ZM322.927 328.154C322.927 326.936 323.126 325.988 323.522 325.308C323.919 324.622 324.612 324.278 325.603 324.278C326.587 324.278 327.277 324.622 327.674 325.308C328.07 325.988 328.269 326.936 328.269 328.154C328.269 329.393 328.07 330.356 327.674 331.042C327.277 331.729 326.587 332.072 325.603 332.072C324.612 332.072 323.919 331.729 323.522 331.042C323.126 330.356 322.927 329.393 322.927 328.154ZM327.313 328.154C327.313 327.538 327.27 327.018 327.185 326.593C327.108 326.161 326.941 325.814 326.686 325.553C326.439 325.291 326.078 325.16 325.603 325.16C325.122 325.16 324.754 325.291 324.499 325.553C324.251 325.814 324.085 326.161 324 326.593C323.922 327.018 323.883 327.538 323.883 328.154C323.883 328.791 323.922 329.326 324 329.757C324.085 330.189 324.251 330.536 324.499 330.798C324.754 331.06 325.122 331.191 325.603 331.191C326.078 331.191 326.439 331.06 326.686 330.798C326.941 330.536 327.108 330.189 327.185 329.757C327.27 329.326 327.313 328.791 327.313 328.154Z" fill="black"/>
<path d="M234.907 331.297C235.806 330.575 236.511 329.984 237.02 329.524C237.53 329.057 237.958 328.572 238.305 328.069C238.659 327.559 238.836 327.06 238.836 326.572C238.836 326.112 238.723 325.751 238.496 325.489C238.277 325.22 237.919 325.085 237.424 325.085C236.942 325.085 236.567 325.238 236.298 325.542C236.036 325.839 235.895 326.239 235.874 326.742H234.939C234.967 325.949 235.208 325.337 235.661 324.905C236.114 324.473 236.698 324.257 237.413 324.257C238.142 324.257 238.719 324.459 239.144 324.862C239.576 325.266 239.792 325.822 239.792 326.529C239.792 327.117 239.615 327.69 239.261 328.25C238.914 328.802 238.518 329.29 238.072 329.715C237.626 330.133 237.056 330.621 236.362 331.18H240.015V331.987H234.907V331.297ZM241.132 328.154C241.132 326.936 241.33 325.988 241.726 325.308C242.123 324.622 242.817 324.278 243.808 324.278C244.792 324.278 245.482 324.622 245.878 325.308C246.275 325.988 246.473 326.936 246.473 328.154C246.473 329.393 246.275 330.356 245.878 331.042C245.482 331.729 244.792 332.072 243.808 332.072C242.817 332.072 242.123 331.729 241.726 331.042C241.33 330.356 241.132 329.393 241.132 328.154ZM245.517 328.154C245.517 327.538 245.475 327.018 245.39 326.593C245.312 326.161 245.146 325.814 244.891 325.553C244.643 325.291 244.282 325.16 243.808 325.16C243.326 325.16 242.958 325.291 242.703 325.553C242.456 325.814 242.289 326.161 242.204 326.593C242.126 327.018 242.087 327.538 242.087 328.154C242.087 328.791 242.126 329.326 242.204 329.757C242.289 330.189 242.456 330.536 242.703 330.798C242.958 331.06 243.326 331.191 243.808 331.191C244.282 331.191 244.643 331.06 244.891 330.798C245.146 330.536 245.312 330.189 245.39 329.757C245.475 329.326 245.517 328.791 245.517 328.154ZM247.545 325.276V324.395H249.541V332.072H248.564V325.276H247.545ZM252.443 330.012C252.514 330.416 252.677 330.727 252.932 330.947C253.193 331.166 253.544 331.276 253.983 331.276C254.57 331.276 255.002 331.046 255.278 330.586C255.561 330.126 255.696 329.35 255.682 328.26C255.533 328.579 255.285 328.83 254.938 329.014C254.592 329.191 254.206 329.28 253.781 329.28C253.307 329.28 252.882 329.184 252.507 328.993C252.139 328.795 251.848 328.508 251.636 328.133C251.424 327.758 251.318 327.305 251.318 326.774C251.318 326.016 251.537 325.407 251.976 324.947C252.415 324.48 253.038 324.246 253.845 324.246C254.836 324.246 255.53 324.569 255.926 325.213C256.329 325.857 256.531 326.816 256.531 328.09C256.531 328.982 256.45 329.719 256.287 330.299C256.131 330.879 255.862 331.322 255.48 331.626C255.105 331.931 254.588 332.083 253.93 332.083C253.208 332.083 252.645 331.888 252.241 331.499C251.838 331.11 251.608 330.614 251.551 330.012H252.443ZM253.94 328.462C254.415 328.462 254.804 328.317 255.108 328.027C255.413 327.729 255.565 327.329 255.565 326.827C255.565 326.296 255.416 325.868 255.119 325.542C254.822 325.216 254.404 325.053 253.866 325.053C253.37 325.053 252.974 325.209 252.677 325.521C252.386 325.832 252.241 326.243 252.241 326.752C252.241 327.269 252.386 327.683 252.677 327.995C252.967 328.306 253.388 328.462 253.94 328.462Z" fill="black"/>
<path d="M164.37 331.297C165.269 330.575 165.973 329.984 166.483 329.524C166.993 329.057 167.421 328.572 167.768 328.069C168.122 327.559 168.299 327.06 168.299 326.572C168.299 326.112 168.185 325.751 167.959 325.489C167.74 325.22 167.382 325.085 166.887 325.085C166.405 325.085 166.03 325.238 165.761 325.542C165.499 325.839 165.357 326.239 165.336 326.742H164.402C164.43 325.949 164.671 325.337 165.124 324.905C165.577 324.473 166.161 324.257 166.876 324.257C167.605 324.257 168.182 324.459 168.607 324.862C169.039 325.266 169.254 325.822 169.254 326.529C169.254 327.117 169.077 327.69 168.724 328.25C168.377 328.802 167.98 329.29 167.534 329.715C167.088 330.133 166.518 330.621 165.825 331.18H169.477V331.987H164.37V331.297ZM170.594 328.154C170.594 326.936 170.793 325.988 171.189 325.308C171.585 324.622 172.279 324.278 173.27 324.278C174.254 324.278 174.944 324.622 175.341 325.308C175.737 325.988 175.936 326.936 175.936 328.154C175.936 329.393 175.737 330.356 175.341 331.042C174.944 331.729 174.254 332.072 173.27 332.072C172.279 332.072 171.585 331.729 171.189 331.042C170.793 330.356 170.594 329.393 170.594 328.154ZM174.98 328.154C174.98 327.538 174.937 327.018 174.852 326.593C174.775 326.161 174.608 325.814 174.353 325.553C174.106 325.291 173.745 325.16 173.27 325.16C172.789 325.16 172.421 325.291 172.166 325.553C171.918 325.814 171.752 326.161 171.667 326.593C171.589 327.018 171.55 327.538 171.55 328.154C171.55 328.791 171.589 329.326 171.667 329.757C171.752 330.189 171.918 330.536 172.166 330.798C172.421 331.06 172.789 331.191 173.27 331.191C173.745 331.191 174.106 331.06 174.353 330.798C174.608 330.536 174.775 330.189 174.852 329.757C174.937 329.326 174.98 328.791 174.98 328.154ZM177.007 325.276V324.395H179.004V332.072H178.027V325.276H177.007ZM182.065 328.08C181.669 327.924 181.364 327.697 181.152 327.4C180.939 327.103 180.833 326.742 180.833 326.317C180.833 325.935 180.929 325.591 181.12 325.287C181.311 324.976 181.594 324.731 181.969 324.554C182.352 324.37 182.812 324.278 183.35 324.278C183.888 324.278 184.344 324.37 184.72 324.554C185.102 324.731 185.389 324.976 185.58 325.287C185.778 325.591 185.877 325.935 185.877 326.317C185.877 326.728 185.767 327.089 185.548 327.4C185.328 327.705 185.028 327.931 184.645 328.08C185.084 328.214 185.431 328.451 185.686 328.791C185.948 329.124 186.079 329.527 186.079 330.002C186.079 330.462 185.966 330.865 185.739 331.212C185.512 331.552 185.19 331.817 184.773 332.009C184.362 332.193 183.888 332.285 183.35 332.285C182.812 332.285 182.338 332.193 181.927 332.009C181.523 331.817 181.208 331.552 180.982 331.212C180.755 330.865 180.642 330.462 180.642 330.002C180.642 329.527 180.77 329.12 181.024 328.781C181.279 328.441 181.626 328.207 182.065 328.08ZM184.943 326.434C184.943 326.002 184.801 325.669 184.518 325.436C184.235 325.202 183.845 325.085 183.35 325.085C182.861 325.085 182.476 325.202 182.192 325.436C181.909 325.669 181.768 326.006 181.768 326.444C181.768 326.841 181.913 327.159 182.203 327.4C182.5 327.641 182.883 327.761 183.35 327.761C183.824 327.761 184.206 327.641 184.497 327.4C184.794 327.152 184.943 326.83 184.943 326.434ZM183.35 328.504C182.826 328.504 182.398 328.628 182.065 328.876C181.732 329.117 181.566 329.481 181.566 329.97C181.566 330.423 181.725 330.787 182.044 331.064C182.369 331.34 182.805 331.478 183.35 331.478C183.895 331.478 184.327 331.34 184.645 331.064C184.964 330.787 185.123 330.423 185.123 329.97C185.123 329.496 184.96 329.135 184.635 328.887C184.309 328.632 183.881 328.504 183.35 328.504Z" fill="black"/>
<path d="M99.1421 331.297C100.041 330.575 100.746 329.984 101.255 329.524C101.765 329.057 102.193 328.572 102.54 328.069C102.894 327.559 103.071 327.06 103.071 326.572C103.071 326.112 102.958 325.751 102.731 325.489C102.512 325.22 102.154 325.085 101.659 325.085C101.177 325.085 100.802 325.238 100.533 325.542C100.271 325.839 100.13 326.239 100.108 326.742H99.174C99.2023 325.949 99.443 325.337 99.896 324.905C100.349 324.473 100.933 324.257 101.648 324.257C102.377 324.257 102.954 324.459 103.379 324.862C103.811 325.266 104.027 325.822 104.027 326.529C104.027 327.117 103.85 327.69 103.496 328.25C103.149 328.802 102.752 329.29 102.306 329.715C101.86 330.133 101.291 330.621 100.597 331.18H104.25V331.987H99.1421V331.297ZM105.367 328.154C105.367 326.936 105.565 325.988 105.961 325.308C106.358 324.622 107.051 324.278 108.043 324.278C109.026 324.278 109.717 324.622 110.113 325.308C110.51 325.988 110.708 326.936 110.708 328.154C110.708 329.393 110.51 330.356 110.113 331.042C109.717 331.729 109.026 332.072 108.043 332.072C107.051 332.072 106.358 331.729 105.961 331.042C105.565 330.356 105.367 329.393 105.367 328.154ZM109.752 328.154C109.752 327.538 109.71 327.018 109.625 326.593C109.547 326.161 109.38 325.814 109.126 325.553C108.878 325.291 108.517 325.16 108.043 325.16C107.561 325.16 107.193 325.291 106.938 325.553C106.69 325.814 106.524 326.161 106.439 326.593C106.361 327.018 106.322 327.538 106.322 328.154C106.322 328.791 106.361 329.326 106.439 329.757C106.524 330.189 106.69 330.536 106.938 330.798C107.193 331.06 107.561 331.191 108.043 331.191C108.517 331.191 108.878 331.06 109.126 330.798C109.38 330.536 109.547 330.189 109.625 329.757C109.71 329.326 109.752 328.791 109.752 328.154ZM111.779 325.276V324.395H113.776V332.072H112.799V325.276H111.779ZM120.161 325.149L117.209 332.072H116.232L119.226 325.245H115.128V324.416H120.161V325.149Z" fill="black"/>
<path d="M32.397 331.297C33.296 330.575 34.0004 329.984 34.5101 329.524C35.0198 329.057 35.4481 328.572 35.7949 328.069C36.1489 327.559 36.3259 327.06 36.3259 326.572C36.3259 326.112 36.2126 325.751 35.9861 325.489C35.7666 325.22 35.4091 325.085 34.9136 325.085C34.4322 325.085 34.057 325.238 33.788 325.542C33.5261 325.839 33.3845 326.239 33.3633 326.742H32.4289C32.4572 325.949 32.6979 325.337 33.1509 324.905C33.604 324.473 34.188 324.257 34.903 324.257C35.6321 324.257 36.2091 324.459 36.6338 324.862C37.0656 325.266 37.2815 325.822 37.2815 326.529C37.2815 327.117 37.1046 327.69 36.7506 328.25C36.4037 328.802 36.0073 329.29 35.5613 329.715C35.1154 330.133 34.5455 330.621 33.8517 331.18H37.5045V331.987H32.397V331.297ZM38.6215 328.154C38.6215 326.936 38.8197 325.988 39.2162 325.308C39.6126 324.622 40.3063 324.278 41.2974 324.278C42.2814 324.278 42.9716 324.622 43.368 325.308C43.7644 325.988 43.9626 326.936 43.9626 328.154C43.9626 329.393 43.7644 330.356 43.368 331.042C42.9716 331.729 42.2814 332.072 41.2974 332.072C40.3063 332.072 39.6126 331.729 39.2162 331.042C38.8197 330.356 38.6215 329.393 38.6215 328.154ZM43.007 328.154C43.007 327.538 42.9645 327.018 42.8796 326.593C42.8017 326.161 42.6353 325.814 42.3805 325.553C42.1327 325.291 41.7717 325.16 41.2974 325.16C40.816 325.16 40.4479 325.291 40.1931 325.553C39.9453 325.814 39.779 326.161 39.694 326.593C39.6161 327.018 39.5772 327.538 39.5772 328.154C39.5772 328.791 39.6161 329.326 39.694 329.757C39.779 330.189 39.9453 330.536 40.1931 330.798C40.4479 331.06 40.816 331.191 41.2974 331.191C41.7717 331.191 42.1327 331.06 42.3805 330.798C42.6353 330.536 42.8017 330.189 42.8796 329.757C42.9645 329.326 43.007 328.791 43.007 328.154ZM45.0344 325.276V324.395H47.0306V332.072H46.0537V325.276H45.0344ZM52.9697 326.221C52.814 325.436 52.3291 325.043 51.515 325.043C50.8849 325.043 50.4142 325.287 50.1027 325.776C49.7912 326.257 49.639 327.053 49.6461 328.165C49.8089 327.797 50.0779 327.51 50.4531 327.305C50.8354 327.092 51.2601 326.986 51.7273 326.986C52.4565 326.986 53.037 327.213 53.4688 327.666C53.9077 328.119 54.1271 328.745 54.1271 329.545C54.1271 330.026 54.0316 330.458 53.8404 330.841C53.6564 331.223 53.3732 331.527 52.9909 331.754C52.6158 331.98 52.1592 332.094 51.6212 332.094C50.892 332.094 50.3222 331.931 49.9116 331.605C49.501 331.279 49.2143 330.83 49.0515 330.257C48.8887 329.683 48.8073 328.975 48.8073 328.133C48.8073 325.535 49.7134 324.236 51.5256 324.236C52.2193 324.236 52.7644 324.423 53.1608 324.799C53.5573 325.174 53.7909 325.648 53.8617 326.221H52.9697ZM51.5256 327.804C51.2212 327.804 50.9345 327.867 50.6655 327.995C50.3965 328.115 50.177 328.303 50.0071 328.558C49.8443 328.805 49.7629 329.11 49.7629 329.471C49.7629 330.009 49.9187 330.448 50.2301 330.787C50.5416 331.12 50.9876 331.287 51.5681 331.287C52.0636 331.287 52.4565 331.134 52.7467 330.83C53.044 330.518 53.1927 330.101 53.1927 329.577C53.1927 329.025 53.0511 328.593 52.768 328.281C52.4848 327.963 52.0707 327.804 51.5256 327.804Z" fill="black"/>
<path d="M14.9524 323.712C15.8515 322.99 16.5558 322.399 17.0655 321.939C17.5752 321.472 18.0035 320.987 18.3504 320.484C18.7043 319.975 18.8813 319.476 18.8813 318.987C18.8813 318.527 18.768 318.166 18.5415 317.904C18.322 317.635 17.9645 317.501 17.469 317.501C16.9876 317.501 16.6125 317.653 16.3435 317.957C16.0815 318.254 15.94 318.654 15.9187 319.157H14.9843C15.0126 318.364 15.2533 317.752 15.7063 317.32C16.1594 316.888 16.7434 316.672 17.4584 316.672C18.1875 316.672 18.7645 316.874 19.1892 317.278C19.621 317.681 19.8369 318.237 19.8369 318.945C19.8369 319.532 19.66 320.106 19.306 320.665C18.9592 321.217 18.5627 321.705 18.1167 322.13C17.6708 322.548 17.1009 323.036 16.4072 323.596H20.0599V324.403H14.9524V323.712ZM21.177 320.569C21.177 319.352 21.3752 318.403 21.7716 317.724C22.168 317.037 22.8618 316.694 23.8528 316.694C24.8368 316.694 25.527 317.037 25.9234 317.724C26.3199 318.403 26.5181 319.352 26.5181 320.569C26.5181 321.808 26.3199 322.771 25.9234 323.458C25.527 324.144 24.8368 324.488 23.8528 324.488C22.8618 324.488 22.168 324.144 21.7716 323.458C21.3752 322.771 21.177 321.808 21.177 320.569ZM25.5624 320.569C25.5624 319.953 25.5199 319.433 25.435 319.008C25.3571 318.577 25.1907 318.23 24.9359 317.968C24.6881 317.706 24.3271 317.575 23.8528 317.575C23.3714 317.575 23.0033 317.706 22.7485 317.968C22.5007 318.23 22.3344 318.577 22.2494 319.008C22.1716 319.433 22.1326 319.953 22.1326 320.569C22.1326 321.206 22.1716 321.741 22.2494 322.173C22.3344 322.605 22.5007 322.951 22.7485 323.213C23.0033 323.475 23.3714 323.606 23.8528 323.606C24.3271 323.606 24.6881 323.475 24.9359 323.213C25.1907 322.951 25.3571 322.605 25.435 322.173C25.5199 321.741 25.5624 321.206 25.5624 320.569Z" fill="black"/>
<path d="M14.9524 266.828C15.8515 266.105 16.5558 265.514 17.0655 265.054C17.5752 264.587 18.0035 264.102 18.3504 263.599C18.7043 263.09 18.8813 262.591 18.8813 262.102C18.8813 261.642 18.768 261.281 18.5415 261.019C18.322 260.75 17.9645 260.616 17.469 260.616C16.9876 260.616 16.6125 260.768 16.3435 261.072C16.0815 261.37 15.94 261.77 15.9187 262.272H14.9843C15.0126 261.479 15.2533 260.867 15.7063 260.435C16.1594 260.003 16.7434 259.787 17.4584 259.787C18.1875 259.787 18.7645 259.989 19.1892 260.393C19.621 260.796 19.8369 261.352 19.8369 262.06C19.8369 262.647 19.66 263.221 19.306 263.78C18.9592 264.332 18.5627 264.821 18.1167 265.245C17.6708 265.663 17.1009 266.151 16.4072 266.711H20.0599V267.518H14.9524V266.828ZM26.0721 260.764H22.345V263.185C22.5078 262.959 22.7485 262.775 23.067 262.633C23.3856 262.485 23.7289 262.41 24.097 262.41C24.6846 262.41 25.1624 262.534 25.5305 262.782C25.8987 263.023 26.1606 263.338 26.3163 263.727C26.4791 264.109 26.5605 264.516 26.5605 264.948C26.5605 265.458 26.465 265.914 26.2738 266.318C26.0827 266.721 25.7889 267.04 25.3925 267.273C25.0032 267.507 24.5182 267.624 23.9378 267.624C23.1945 267.624 22.5928 267.433 22.1326 267.05C21.6725 266.668 21.3929 266.159 21.2938 265.521H22.2388C22.3308 265.925 22.5255 266.24 22.8228 266.466C23.1201 266.693 23.4953 266.806 23.9484 266.806C24.5076 266.806 24.9288 266.64 25.212 266.307C25.4951 265.967 25.6367 265.521 25.6367 264.969C25.6367 264.417 25.4951 263.992 25.212 263.695C24.9288 263.391 24.5112 263.238 23.959 263.238C23.5838 263.238 23.2546 263.33 22.9715 263.515C22.6954 263.692 22.4936 263.936 22.3662 264.247H21.453V259.915H26.0721V260.764Z" fill="black"/>
<path d="M15.048 204.973C15.0976 204.322 15.3489 203.812 15.8019 203.444C16.255 203.076 16.8425 202.892 17.5646 202.892C18.046 202.892 18.4601 202.98 18.807 203.157C19.1609 203.327 19.4264 203.561 19.6033 203.858C19.7874 204.156 19.8794 204.492 19.8794 204.867C19.8794 205.306 19.752 205.685 19.4972 206.003C19.2494 206.322 18.9238 206.527 18.5203 206.619V206.672C18.9804 206.785 19.345 207.008 19.614 207.341C19.883 207.674 20.0175 208.109 20.0175 208.647C20.0175 209.051 19.9254 209.415 19.7414 209.741C19.5573 210.059 19.2812 210.311 18.9131 210.495C18.545 210.679 18.1026 210.771 17.5858 210.771C16.8354 210.771 16.2196 210.576 15.7382 210.187C15.2568 209.79 14.9878 209.231 14.9312 208.509H15.8656C15.9152 208.934 16.0886 209.281 16.3859 209.55C16.6832 209.819 17.0797 209.953 17.5752 209.953C18.0707 209.953 18.4459 209.826 18.7008 209.571C18.9627 209.309 19.0937 208.973 19.0937 208.562C19.0937 208.031 18.9167 207.649 18.5627 207.415C18.2088 207.182 17.6743 207.065 16.9593 207.065H16.7151V206.258H16.9699C17.6212 206.251 18.1132 206.145 18.4459 205.939C18.7786 205.727 18.945 205.401 18.945 204.963C18.945 204.587 18.8211 204.286 18.5733 204.06C18.3327 203.833 17.9858 203.72 17.5327 203.72C17.0938 203.72 16.7399 203.833 16.4709 204.06C16.2019 204.286 16.0426 204.591 15.993 204.973H15.048ZM21.3221 206.8C21.3221 205.582 21.5203 204.633 21.9168 203.954C22.3132 203.267 23.0069 202.924 23.998 202.924C24.982 202.924 25.6722 203.267 26.0686 203.954C26.465 204.633 26.6632 205.582 26.6632 206.8C26.6632 208.038 26.465 209.001 26.0686 209.688C25.6722 210.374 24.982 210.718 23.998 210.718C23.0069 210.718 22.3132 210.374 21.9168 209.688C21.5203 209.001 21.3221 208.038 21.3221 206.8ZM25.7076 206.8C25.7076 206.184 25.6651 205.663 25.5802 205.239C25.5023 204.807 25.3359 204.46 25.0811 204.198C24.8333 203.936 24.4723 203.805 23.998 203.805C23.5166 203.805 23.1485 203.936 22.8937 204.198C22.6459 204.46 22.4795 204.807 22.3946 205.239C22.3167 205.663 22.2778 206.184 22.2778 206.8C22.2778 207.437 22.3167 207.971 22.3946 208.403C22.4795 208.835 22.6459 209.182 22.8937 209.444C23.1485 209.705 23.5166 209.836 23.998 209.836C24.4723 209.836 24.8333 209.705 25.0811 209.444C25.3359 209.182 25.5023 208.835 25.5802 208.403C25.6651 207.971 25.7076 207.437 25.7076 206.8Z" fill="black"/>
<path d="M15.048 148.088C15.0976 147.437 15.3489 146.927 15.8019 146.559C16.255 146.191 16.8425 146.007 17.5646 146.007C18.046 146.007 18.4601 146.096 18.807 146.273C19.1609 146.442 19.4264 146.676 19.6033 146.973C19.7874 147.271 19.8794 147.607 19.8794 147.982C19.8794 148.421 19.752 148.8 19.4972 149.118C19.2494 149.437 18.9238 149.642 18.5203 149.734V149.787C18.9804 149.9 19.345 150.123 19.614 150.456C19.883 150.789 20.0175 151.224 20.0175 151.762C20.0175 152.166 19.9254 152.53 19.7414 152.856C19.5573 153.175 19.2812 153.426 18.9131 153.61C18.545 153.794 18.1026 153.886 17.5858 153.886C16.8354 153.886 16.2196 153.691 15.7382 153.302C15.2568 152.906 14.9878 152.346 14.9312 151.624H15.8656C15.9152 152.049 16.0886 152.396 16.3859 152.665C16.6832 152.934 17.0797 153.068 17.5752 153.068C18.0707 153.068 18.4459 152.941 18.7008 152.686C18.9627 152.424 19.0937 152.088 19.0937 151.677C19.0937 151.146 18.9167 150.764 18.5627 150.531C18.2088 150.297 17.6743 150.18 16.9593 150.18H16.7151V149.373H16.9699C17.6212 149.366 18.1132 149.26 18.4459 149.055C18.7786 148.842 18.945 148.517 18.945 148.078C18.945 147.702 18.8211 147.402 18.5733 147.175C18.3327 146.949 17.9858 146.835 17.5327 146.835C17.0938 146.835 16.7399 146.949 16.4709 147.175C16.2019 147.402 16.0426 147.706 15.993 148.088H15.048ZM26.2173 146.995H22.4902V149.416C22.653 149.189 22.8937 149.005 23.2122 148.863C23.5308 148.715 23.8741 148.64 24.2422 148.64C24.8298 148.64 25.3076 148.764 25.6757 149.012C26.0438 149.253 26.3057 149.568 26.4615 149.957C26.6243 150.339 26.7057 150.746 26.7057 151.178C26.7057 151.688 26.6101 152.145 26.419 152.548C26.2279 152.952 25.9341 153.27 25.5377 153.504C25.1483 153.737 24.6634 153.854 24.0829 153.854C23.3396 153.854 22.7379 153.663 22.2778 153.281C21.8177 152.898 21.538 152.389 21.4389 151.752H22.384C22.476 152.155 22.6707 152.47 22.968 152.697C23.2653 152.923 23.6405 153.036 24.0936 153.036C24.6528 153.036 25.074 152.87 25.3572 152.537C25.6403 152.198 25.7819 151.752 25.7819 151.199C25.7819 150.647 25.6403 150.223 25.3572 149.925C25.074 149.621 24.6563 149.469 24.1042 149.469C23.729 149.469 23.3998 149.561 23.1167 149.745C22.8406 149.922 22.6388 150.166 22.5114 150.477H21.5982V146.145H26.2173V146.995Z" fill="black"/>
<path d="M14.8356 96.7554V96.0227L18.5627 90.8621H19.7201V95.9165H20.782V96.7554H19.7201V98.4649H18.7645V96.7554H14.8356ZM18.807 91.8708L15.9506 95.9165H18.807V91.8708ZM21.7473 94.5467C21.7473 93.3291 21.9455 92.3805 22.3419 91.7009C22.7383 91.0143 23.4321 90.6709 24.4231 90.6709C25.4071 90.6709 26.0973 91.0143 26.4938 91.7009C26.8902 92.3805 27.0884 93.3291 27.0884 94.5467C27.0884 95.7855 26.8902 96.7483 26.4938 97.4349C26.0973 98.1216 25.4071 98.4649 24.4231 98.4649C23.4321 98.4649 22.7383 98.1216 22.3419 97.4349C21.9455 96.7483 21.7473 95.7855 21.7473 94.5467ZM26.1327 94.5467C26.1327 93.9308 26.0903 93.4105 26.0053 92.9858C25.9274 92.554 25.7611 92.2071 25.5062 91.9452C25.2585 91.6832 24.8974 91.5523 24.4231 91.5523C23.9418 91.5523 23.5737 91.6832 23.3188 91.9452C23.0711 92.2071 22.9047 92.554 22.8198 92.9858C22.7419 93.4105 22.7029 93.9308 22.7029 94.5467C22.7029 95.1838 22.7419 95.7183 22.8198 96.1501C22.9047 96.5819 23.0711 96.9288 23.3188 97.1907C23.5737 97.4526 23.9418 97.5836 24.4231 97.5836C24.8974 97.5836 25.2585 97.4526 25.5062 97.1907C25.7611 96.9288 25.9274 96.5819 26.0053 96.1501C26.0903 95.7183 26.1327 95.1838 26.1327 94.5467Z" fill="black"/>
<path d="M10.934 39.074H4.818L3.806 42H0.572L6.094 26.622H9.68L15.202 42H11.946L10.934 39.074ZM10.098 36.61L7.876 30.186L5.654 36.61H10.098ZM20.852 32.342V38.238C20.852 38.6487 20.9474 38.9493 21.138 39.14C21.3434 39.316 21.6807 39.404 22.15 39.404H23.58V42H21.644C19.048 42 17.75 40.7387 17.75 38.216V32.342H16.298V29.812H17.75V26.798H20.852V29.812H23.58V32.342H20.852ZM29.3813 32.342V38.238C29.3813 38.6487 29.4767 38.9493 29.6673 39.14C29.8727 39.316 30.21 39.404 30.6793 39.404H32.1093V42H30.1733C27.5773 42 26.2793 40.7387 26.2793 38.216V32.342H24.8273V29.812H26.2793V26.798H29.3813V29.812H32.1093V32.342H29.3813ZM45.6546 35.642C45.6546 36.082 45.6253 36.478 45.5666 36.83H36.6566C36.73 37.71 37.038 38.3993 37.5806 38.898C38.1233 39.3967 38.7906 39.646 39.5826 39.646C40.7266 39.646 41.5406 39.1547 42.0246 38.172H45.3466C44.9946 39.3453 44.32 40.3133 43.3226 41.076C42.3253 41.824 41.1006 42.198 39.6486 42.198C38.4753 42.198 37.4193 41.9413 36.4806 41.428C35.5566 40.9 34.8306 40.1593 34.3026 39.206C33.7893 38.2527 33.5326 37.1527 33.5326 35.906C33.5326 34.6447 33.7893 33.5373 34.3026 32.584C34.816 31.6307 35.5346 30.8973 36.4586 30.384C37.3826 29.8707 38.446 29.614 39.6486 29.614C40.8073 29.614 41.8413 29.8633 42.7506 30.362C43.6746 30.8607 44.386 31.572 44.8846 32.496C45.398 33.4053 45.6546 34.454 45.6546 35.642ZM42.4646 34.762C42.45 33.97 42.164 33.3393 41.6066 32.87C41.0493 32.386 40.3673 32.144 39.5606 32.144C38.798 32.144 38.1526 32.3787 37.6246 32.848C37.1113 33.3027 36.796 33.9407 36.6786 34.762H42.4646ZM54.6568 29.636C56.1088 29.636 57.2821 30.098 58.1768 31.022C59.0714 31.9313 59.5188 33.2073 59.5188 34.85V42H56.4388V35.268C56.4388 34.3 56.1968 33.5593 55.7128 33.046C55.2288 32.518 54.5688 32.254 53.7328 32.254C52.8821 32.254 52.2074 32.518 51.7088 33.046C51.2248 33.5593 50.9828 34.3 50.9828 35.268V42H47.9028V29.812H50.9828V31.33C51.3934 30.802 51.9141 30.3913 52.5448 30.098C53.1901 29.79 53.8941 29.636 54.6568 29.636ZM61.6557 35.862C61.6557 34.63 61.8977 33.5373 62.3817 32.584C62.8804 31.6307 63.555 30.8973 64.4057 30.384C65.2564 29.8707 66.2024 29.614 67.2437 29.614C68.0357 29.614 68.791 29.79 69.5097 30.142C70.2284 30.4793 70.8004 30.934 71.2257 31.506V25.72H74.3497V42H71.2257V40.196C70.8444 40.7973 70.309 41.2813 69.6197 41.648C68.9304 42.0147 68.131 42.198 67.2217 42.198C66.195 42.198 65.2564 41.934 64.4057 41.406C63.555 40.878 62.8804 40.1373 62.3817 39.184C61.8977 38.216 61.6557 37.1087 61.6557 35.862ZM71.2477 35.906C71.2477 35.158 71.101 34.52 70.8077 33.992C70.5144 33.4493 70.1184 33.0387 69.6197 32.76C69.121 32.4667 68.5857 32.32 68.0137 32.32C67.4417 32.32 66.9137 32.4593 66.4297 32.738C65.9457 33.0167 65.5497 33.4273 65.2417 33.97C64.9484 34.498 64.8017 35.1287 64.8017 35.862C64.8017 36.5953 64.9484 37.2407 65.2417 37.798C65.5497 38.3407 65.9457 38.7587 66.4297 39.052C66.9284 39.3453 67.4564 39.492 68.0137 39.492C68.5857 39.492 69.121 39.3527 69.6197 39.074C70.1184 38.7807 70.5144 38.37 70.8077 37.842C71.101 37.2993 71.2477 36.654 71.2477 35.906ZM76.5658 35.862C76.5658 34.63 76.8078 33.5373 77.2918 32.584C77.7905 31.6307 78.4578 30.8973 79.2938 30.384C80.1445 29.8707 81.0905 29.614 82.1318 29.614C83.0412 29.614 83.8332 29.7973 84.5078 30.164C85.1972 30.5307 85.7472 30.9927 86.1578 31.55V29.812H89.2598V42H86.1578V40.218C85.7618 40.79 85.2118 41.2667 84.5078 41.648C83.8185 42.0147 83.0192 42.198 82.1098 42.198C81.0832 42.198 80.1445 41.934 79.2938 41.406C78.4578 40.878 77.7905 40.1373 77.2918 39.184C76.8078 38.216 76.5658 37.1087 76.5658 35.862ZM86.1578 35.906C86.1578 35.158 86.0112 34.52 85.7178 33.992C85.4245 33.4493 85.0285 33.0387 84.5298 32.76C84.0312 32.4667 83.4958 32.32 82.9238 32.32C82.3518 32.32 81.8238 32.4593 81.3398 32.738C80.8558 33.0167 80.4598 33.4273 80.1518 33.97C79.8585 34.498 79.7118 35.1287 79.7118 35.862C79.7118 36.5953 79.8585 37.2407 80.1518 37.798C80.4598 38.3407 80.8558 38.7587 81.3398 39.052C81.8385 39.3453 82.3665 39.492 82.9238 39.492C83.4958 39.492 84.0312 39.3527 84.5298 39.074C85.0285 38.7807 85.4245 38.37 85.7178 37.842C86.0112 37.2993 86.1578 36.654 86.1578 35.906ZM99.022 29.636C100.474 29.636 101.647 30.098 102.542 31.022C103.437 31.9313 103.884 33.2073 103.884 34.85V42H100.804V35.268C100.804 34.3 100.562 33.5593 100.078 33.046C99.594 32.518 98.934 32.254 98.098 32.254C97.2473 32.254 96.5727 32.518 96.074 33.046C95.59 33.5593 95.348 34.3 95.348 35.268V42H92.268V29.812H95.348V31.33C95.7587 30.802 96.2793 30.3913 96.91 30.098C97.5553 29.79 98.2593 29.636 99.022 29.636ZM106.021 35.906C106.021 34.6447 106.278 33.5447 106.791 32.606C107.304 31.6527 108.016 30.9193 108.925 30.406C109.834 29.878 110.876 29.614 112.049 29.614C113.56 29.614 114.806 29.9953 115.789 30.758C116.786 31.506 117.454 32.562 117.791 33.926H114.469C114.293 33.398 113.992 32.9873 113.567 32.694C113.156 32.386 112.643 32.232 112.027 32.232C111.147 32.232 110.45 32.5547 109.937 33.2C109.424 33.8307 109.167 34.7327 109.167 35.906C109.167 37.0647 109.424 37.9667 109.937 38.612C110.45 39.2427 111.147 39.558 112.027 39.558C113.274 39.558 114.088 39.0007 114.469 37.886H117.791C117.454 39.206 116.786 40.2547 115.789 41.032C114.792 41.8093 113.545 42.198 112.049 42.198C110.876 42.198 109.834 41.9413 108.925 41.428C108.016 40.9 107.304 40.1667 106.791 39.228C106.278 38.2747 106.021 37.1673 106.021 35.906ZM131.377 35.642C131.377 36.082 131.348 36.478 131.289 36.83H122.379C122.453 37.71 122.761 38.3993 123.303 38.898C123.846 39.3967 124.513 39.646 125.305 39.646C126.449 39.646 127.263 39.1547 127.747 38.172H131.069C130.717 39.3453 130.043 40.3133 129.045 41.076C128.048 41.824 126.823 42.198 125.371 42.198C124.198 42.198 123.142 41.9413 122.203 41.428C121.279 40.9 120.553 40.1593 120.025 39.206C119.512 38.2527 119.255 37.1527 119.255 35.906C119.255 34.6447 119.512 33.5373 120.025 32.584C120.539 31.6307 121.257 30.8973 122.181 30.384C123.105 29.8707 124.169 29.614 125.371 29.614C126.53 29.614 127.564 29.8633 128.473 30.362C129.397 30.8607 130.109 31.572 130.607 32.496C131.121 33.4053 131.377 34.454 131.377 35.642ZM128.187 34.762C128.173 33.97 127.887 33.3393 127.329 32.87C126.772 32.386 126.09 32.144 125.283 32.144C124.521 32.144 123.875 32.3787 123.347 32.848C122.834 33.3027 122.519 33.9407 122.401 34.762H128.187Z" fill="black"/>
<path d="M144.976 43.976C143.952 42.9733 143.152 41.6987 142.576 40.152C142.011 38.6053 141.728 36.936 141.728 35.144C141.728 33.3093 142.027 31.5973 142.624 30.008C143.232 28.408 144.096 27.0907 145.216 26.056H146.736V26.2C145.541 27.32 144.64 28.6693 144.032 30.248C143.435 31.816 143.136 33.448 143.136 35.144C143.136 36.7973 143.419 38.376 143.984 39.88C144.56 41.384 145.397 42.7013 146.496 43.832V43.976H144.976ZM147.954 36.584C147.954 35.688 148.135 34.904 148.498 34.232C148.86 33.5493 149.356 33.0213 149.986 32.648C150.626 32.2747 151.335 32.088 152.114 32.088C152.882 32.088 153.548 32.2533 154.114 32.584C154.679 32.9147 155.1 33.3307 155.378 33.832V32.232H156.85V41H155.378V39.368C155.09 39.88 154.658 40.3067 154.082 40.648C153.516 40.9787 152.855 41.144 152.098 41.144C151.319 41.144 150.615 40.952 149.986 40.568C149.356 40.184 148.86 39.6453 148.498 38.952C148.135 38.2587 147.954 37.4693 147.954 36.584ZM155.378 36.6C155.378 35.9387 155.244 35.3627 154.978 34.872C154.711 34.3813 154.348 34.008 153.89 33.752C153.442 33.4853 152.946 33.352 152.402 33.352C151.858 33.352 151.362 33.48 150.914 33.736C150.466 33.992 150.108 34.3653 149.842 34.856C149.575 35.3467 149.442 35.9227 149.442 36.584C149.442 37.256 149.575 37.8427 149.842 38.344C150.108 38.8347 150.466 39.2133 150.914 39.48C151.362 39.736 151.858 39.864 152.402 39.864C152.946 39.864 153.442 39.736 153.89 39.48C154.348 39.2133 154.711 38.8347 154.978 38.344C155.244 37.8427 155.378 37.2613 155.378 36.6ZM161.086 33.432V38.6C161.086 39.0267 161.177 39.3307 161.358 39.512C161.539 39.6827 161.854 39.768 162.302 39.768H163.374V41H162.062C161.251 41 160.643 40.8133 160.238 40.44C159.833 40.0667 159.63 39.4533 159.63 38.6V33.432H158.494V32.232H159.63V30.024H161.086V32.232H163.374V33.432H161.086ZM177.212 29.848L173.58 36.792V41H172.124V36.792L168.476 29.848H170.092L172.844 35.496L175.596 29.848H177.212ZM186.748 36.28C186.748 36.5573 186.732 36.8507 186.7 37.16H179.692C179.745 38.024 180.038 38.7013 180.572 39.192C181.116 39.672 181.772 39.912 182.54 39.912C183.169 39.912 183.692 39.768 184.108 39.48C184.534 39.1813 184.833 38.7867 185.004 38.296H186.572C186.337 39.1387 185.868 39.8267 185.164 40.36C184.46 40.8827 183.585 41.144 182.54 41.144C181.708 41.144 180.961 40.9573 180.3 40.584C179.649 40.2107 179.137 39.6827 178.764 39C178.39 38.3067 178.204 37.5067 178.204 36.6C178.204 35.6933 178.385 34.8987 178.748 34.216C179.11 33.5333 179.617 33.0107 180.268 32.648C180.929 32.2747 181.686 32.088 182.54 32.088C183.372 32.088 184.108 32.2693 184.748 32.632C185.388 32.9947 185.878 33.496 186.22 34.136C186.572 34.7653 186.748 35.48 186.748 36.28ZM185.244 35.976C185.244 35.4213 185.121 34.9467 184.876 34.552C184.63 34.1467 184.294 33.8427 183.868 33.64C183.452 33.4267 182.988 33.32 182.476 33.32C181.74 33.32 181.11 33.5547 180.588 34.024C180.076 34.4933 179.782 35.144 179.708 35.976H185.244ZM192.286 32.088C193.043 32.088 193.704 32.2533 194.27 32.584C194.846 32.9147 195.272 33.3307 195.55 33.832V32.232H197.022V41.192C197.022 41.992 196.851 42.7013 196.51 43.32C196.168 43.9493 195.678 44.44 195.038 44.792C194.408 45.144 193.672 45.32 192.83 45.32C191.678 45.32 190.718 45.048 189.95 44.504C189.182 43.96 188.728 43.2187 188.59 42.28H190.03C190.19 42.8133 190.52 43.24 191.022 43.56C191.523 43.8907 192.126 44.056 192.83 44.056C193.63 44.056 194.28 43.8053 194.782 43.304C195.294 42.8027 195.55 42.0987 195.55 41.192V39.352C195.262 39.864 194.835 40.2907 194.27 40.632C193.704 40.9733 193.043 41.144 192.286 41.144C191.507 41.144 190.798 40.952 190.158 40.568C189.528 40.184 189.032 39.6453 188.67 38.952C188.307 38.2587 188.126 37.4693 188.126 36.584C188.126 35.688 188.307 34.904 188.67 34.232C189.032 33.5493 189.528 33.0213 190.158 32.648C190.798 32.2747 191.507 32.088 192.286 32.088ZM195.55 36.6C195.55 35.9387 195.416 35.3627 195.15 34.872C194.883 34.3813 194.52 34.008 194.062 33.752C193.614 33.4853 193.118 33.352 192.574 33.352C192.03 33.352 191.534 33.48 191.086 33.736C190.638 33.992 190.28 34.3653 190.014 34.856C189.747 35.3467 189.614 35.9227 189.614 36.584C189.614 37.256 189.747 37.8427 190.014 38.344C190.28 38.8347 190.638 39.2133 191.086 39.48C191.534 39.736 192.03 39.864 192.574 39.864C193.118 39.864 193.614 39.736 194.062 39.48C194.52 39.2133 194.883 38.8347 195.15 38.344C195.416 37.8427 195.55 37.2613 195.55 36.6ZM203.306 41.144C202.485 41.144 201.738 40.9573 201.066 40.584C200.405 40.2107 199.882 39.6827 199.498 39C199.125 38.3067 198.938 37.5067 198.938 36.6C198.938 35.704 199.13 34.9147 199.514 34.232C199.909 33.5387 200.442 33.0107 201.114 32.648C201.786 32.2747 202.538 32.088 203.37 32.088C204.202 32.088 204.954 32.2747 205.626 32.648C206.298 33.0107 206.826 33.5333 207.21 34.216C207.605 34.8987 207.802 35.6933 207.802 36.6C207.802 37.5067 207.599 38.3067 207.194 39C206.799 39.6827 206.261 40.2107 205.578 40.584C204.895 40.9573 204.138 41.144 203.306 41.144ZM203.306 39.864C203.829 39.864 204.319 39.7413 204.778 39.496C205.237 39.2507 205.605 38.8827 205.882 38.392C206.17 37.9013 206.314 37.304 206.314 36.6C206.314 35.896 206.175 35.2987 205.898 34.808C205.621 34.3173 205.258 33.9547 204.81 33.72C204.362 33.4747 203.877 33.352 203.354 33.352C202.821 33.352 202.33 33.4747 201.882 33.72C201.445 33.9547 201.093 34.3173 200.826 34.808C200.559 35.2987 200.426 35.896 200.426 36.6C200.426 37.3147 200.554 37.9173 200.81 38.408C201.077 38.8987 201.429 39.2667 201.866 39.512C202.303 39.7467 202.783 39.864 203.306 39.864ZM213.438 35.416C213.438 34.328 213.683 33.352 214.174 32.488C214.665 31.6133 215.331 30.9307 216.174 30.44C217.027 29.9493 217.971 29.704 219.006 29.704C220.222 29.704 221.283 29.9973 222.19 30.584C223.097 31.1707 223.758 32.0027 224.174 33.08H222.43C222.121 32.408 221.673 31.8907 221.086 31.528C220.51 31.1653 219.817 30.984 219.006 30.984C218.227 30.984 217.529 31.1653 216.91 31.528C216.291 31.8907 215.806 32.408 215.454 33.08C215.102 33.7413 214.926 34.52 214.926 35.416C214.926 36.3013 215.102 37.08 215.454 37.752C215.806 38.4133 216.291 38.9253 216.91 39.288C217.529 39.6507 218.227 39.832 219.006 39.832C219.817 39.832 220.51 39.656 221.086 39.304C221.673 38.9413 222.121 38.424 222.43 37.752H224.174C223.758 38.8187 223.097 39.6453 222.19 40.232C221.283 40.808 220.222 41.096 219.006 41.096C217.971 41.096 217.027 40.856 216.174 40.376C215.331 39.8853 214.665 39.208 214.174 38.344C213.683 37.48 213.438 36.504 213.438 35.416ZM234.341 36.28C234.341 36.5573 234.325 36.8507 234.293 37.16H227.285C227.339 38.024 227.632 38.7013 228.165 39.192C228.709 39.672 229.365 39.912 230.133 39.912C230.763 39.912 231.285 39.768 231.701 39.48C232.128 39.1813 232.427 38.7867 232.597 38.296H234.165C233.931 39.1387 233.461 39.8267 232.757 40.36C232.053 40.8827 231.179 41.144 230.133 41.144C229.301 41.144 228.555 40.9573 227.893 40.584C227.243 40.2107 226.731 39.6827 226.357 39C225.984 38.3067 225.797 37.5067 225.797 36.6C225.797 35.6933 225.979 34.8987 226.341 34.216C226.704 33.5333 227.211 33.0107 227.861 32.648C228.523 32.2747 229.28 32.088 230.133 32.088C230.965 32.088 231.701 32.2693 232.341 32.632C232.981 32.9947 233.472 33.496 233.813 34.136C234.165 34.7653 234.341 35.48 234.341 36.28ZM232.837 35.976C232.837 35.4213 232.715 34.9467 232.469 34.552C232.224 34.1467 231.888 33.8427 231.461 33.64C231.045 33.4267 230.581 33.32 230.069 33.32C229.333 33.32 228.704 33.5547 228.181 34.024C227.669 34.4933 227.376 35.144 227.301 35.976H232.837ZM240.535 32.072C241.602 32.072 242.466 32.3973 243.127 33.048C243.789 33.688 244.119 34.616 244.119 35.832V41H242.679V36.04C242.679 35.1653 242.461 34.4987 242.023 34.04C241.586 33.5707 240.989 33.336 240.231 33.336C239.463 33.336 238.85 33.576 238.391 34.056C237.943 34.536 237.719 35.2347 237.719 36.152V41H236.263V32.232H237.719V33.48C238.007 33.032 238.397 32.6853 238.887 32.44C239.389 32.1947 239.938 32.072 240.535 32.072ZM248.274 33.432V38.6C248.274 39.0267 248.364 39.3307 248.546 39.512C248.727 39.6827 249.042 39.768 249.49 39.768H250.562V41H249.25C248.439 41 247.831 40.8133 247.426 40.44C247.02 40.0667 246.818 39.4533 246.818 38.6V33.432H245.682V32.232H246.818V30.024H248.274V32.232H250.562V33.432H248.274ZM260.326 36.28C260.326 36.5573 260.31 36.8507 260.278 37.16H253.27C253.323 38.024 253.616 38.7013 254.15 39.192C254.694 39.672 255.35 39.912 256.118 39.912C256.747 39.912 257.27 39.768 257.686 39.48C258.112 39.1813 258.411 38.7867 258.582 38.296H260.15C259.915 39.1387 259.446 39.8267 258.742 40.36C258.038 40.8827 257.163 41.144 256.118 41.144C255.286 41.144 254.539 40.9573 253.878 40.584C253.227 40.2107 252.715 39.6827 252.342 39C251.968 38.3067 251.782 37.5067 251.782 36.6C251.782 35.6933 251.963 34.8987 252.326 34.216C252.688 33.5333 253.195 33.0107 253.846 32.648C254.507 32.2747 255.264 32.088 256.118 32.088C256.95 32.088 257.686 32.2693 258.326 32.632C258.966 32.9947 259.456 33.496 259.798 34.136C260.15 34.7653 260.326 35.48 260.326 36.28ZM258.822 35.976C258.822 35.4213 258.699 34.9467 258.454 34.552C258.208 34.1467 257.872 33.8427 257.446 33.64C257.03 33.4267 256.566 33.32 256.054 33.32C255.318 33.32 254.688 33.5547 254.166 34.024C253.654 34.4933 253.36 35.144 253.286 35.976H258.822ZM263.704 33.656C263.96 33.1547 264.322 32.7653 264.792 32.488C265.272 32.2107 265.853 32.072 266.536 32.072V33.576H266.152C264.52 33.576 263.704 34.4613 263.704 36.232V41H262.248V32.232H263.704V33.656ZM271.32 41.144C270.648 41.144 270.046 41.032 269.512 40.808C268.979 40.5733 268.558 40.2533 268.248 39.848C267.939 39.432 267.768 38.9573 267.736 38.424H269.24C269.283 38.8613 269.486 39.2187 269.848 39.496C270.222 39.7733 270.707 39.912 271.304 39.912C271.859 39.912 272.296 39.7893 272.616 39.544C272.936 39.2987 273.096 38.9893 273.096 38.616C273.096 38.232 272.926 37.9493 272.584 37.768C272.243 37.576 271.715 37.3893 271 37.208C270.35 37.0373 269.816 36.8667 269.4 36.696C268.995 36.5147 268.643 36.2533 268.344 35.912C268.056 35.56 267.912 35.1013 267.912 34.536C267.912 34.088 268.046 33.6773 268.312 33.304C268.579 32.9307 268.958 32.6373 269.448 32.424C269.939 32.2 270.499 32.088 271.128 32.088C272.099 32.088 272.883 32.3333 273.48 32.824C274.078 33.3147 274.398 33.9867 274.44 34.84H272.984C272.952 34.3813 272.766 34.0133 272.424 33.736C272.094 33.4587 271.646 33.32 271.08 33.32C270.558 33.32 270.142 33.432 269.832 33.656C269.523 33.88 269.368 34.1733 269.368 34.536C269.368 34.824 269.459 35.064 269.64 35.256C269.832 35.4373 270.067 35.5867 270.344 35.704C270.632 35.8107 271.027 35.9333 271.528 36.072C272.158 36.2427 272.67 36.4133 273.064 36.584C273.459 36.744 273.795 36.9893 274.072 37.32C274.36 37.6507 274.51 38.0827 274.52 38.616C274.52 39.096 274.387 39.528 274.12 39.912C273.854 40.296 273.475 40.6 272.984 40.824C272.504 41.0373 271.95 41.144 271.32 41.144ZM276.112 43.976V43.832C277.21 42.7013 278.042 41.384 278.608 39.88C279.184 38.376 279.472 36.7973 279.472 35.144C279.472 33.448 279.168 31.816 278.56 30.248C277.962 28.6693 277.066 27.32 275.872 26.2V26.056H277.392C278.512 27.0907 279.37 28.408 279.968 30.008C280.576 31.5973 280.88 33.3093 280.88 35.144C280.88 36.936 280.592 38.6053 280.016 40.152C279.45 41.6987 278.656 42.9733 277.632 43.976H276.112Z" fill="#767474"/>
<path d="M42.0947 301.49L109.977 234.366H177.481L247.639 138.42L315.521 247.639L384.921 164.208L452.424 147.521L521.824 97.4628" stroke="#DA2929" stroke-width="1.51693"/>
<path d="M44.3701 71.2958L108.081 107.702L178.239 194.926L246.88 128.939L317.038 281.011L392.506 157.002L520.307 91.0159" stroke="#DBAE0D" stroke-width="1.51693"/>
<path d="M42.0947 233.607L109.977 157.381L179.377 224.126L246.88 191.892L316.28 255.603L452.424 110.736L522.582 120.217" stroke="#22A7C5" stroke-width="0.758465"/>
<path d="M38.3022 68.2618V308.316L522.582 303.765" stroke="#DFDFDF" stroke-width="0.758465"/>
<path d="M38.6816 261.671L523.72 260.912" stroke="#DFDFDF" stroke-width="0.758465"/>
<path d="M38.3022 209.336H522.203" stroke="#DFDFDF" stroke-width="0.758465"/>
<path d="M38.3022 153.21H522.203" stroke="#DFDFDF" stroke-width="0.758465"/>
<path d="M38.3022 94.8081H522.203" stroke="#DFDFDF" stroke-width="0.758465"/>
<path d="M444.459 33.475V31.2256H448.662V43.9375H446.151V33.475H444.459ZM454.98 41.3742L452.939 46.2741H451.37L452.503 41.3742H454.98ZM459.547 37.2066C458.384 36.6021 457.803 35.6663 457.803 34.3992C457.803 33.7714 457.96 33.2018 458.274 32.6903C458.599 32.1672 459.082 31.7545 459.721 31.4522C460.372 31.1384 461.162 30.9814 462.092 30.9814C463.022 30.9814 463.807 31.1384 464.447 31.4522C465.098 31.7545 465.58 32.1672 465.894 32.6903C466.219 33.2018 466.382 33.7714 466.382 34.3992C466.382 35.0386 466.225 35.6024 465.911 36.0906C465.597 36.5672 465.179 36.9392 464.656 37.2066C465.295 37.4856 465.795 37.8925 466.155 38.4272C466.516 38.962 466.696 39.5956 466.696 40.3279C466.696 41.1184 466.493 41.8101 466.086 42.403C465.69 42.9842 465.144 43.4318 464.447 43.7457C463.749 44.0596 462.964 44.2165 462.092 44.2165C461.221 44.2165 460.436 44.0596 459.738 43.7457C459.053 43.4318 458.506 42.9842 458.099 42.403C457.704 41.8101 457.506 41.1184 457.506 40.3279C457.506 39.5956 457.687 38.962 458.047 38.4272C458.407 37.8809 458.907 37.474 459.547 37.2066ZM464.011 34.7479C464.011 34.1783 463.836 33.7366 463.487 33.4227C463.15 33.1088 462.685 32.9519 462.092 32.9519C461.511 32.9519 461.046 33.1088 460.697 33.4227C460.36 33.7366 460.192 34.1841 460.192 34.7654C460.192 35.2885 460.366 35.707 460.715 36.0209C461.075 36.3347 461.534 36.4917 462.092 36.4917C462.65 36.4917 463.11 36.3347 463.47 36.0209C463.83 35.6954 464.011 35.2711 464.011 34.7479ZM462.092 38.2703C461.43 38.2703 460.889 38.4389 460.471 38.776C460.064 39.1131 459.86 39.5956 459.86 40.2233C459.86 40.8046 460.058 41.2812 460.453 41.6532C460.86 42.0136 461.407 42.1937 462.092 42.1937C462.778 42.1937 463.319 42.0077 463.714 41.6358C464.109 41.2637 464.307 40.7929 464.307 40.2233C464.307 39.6072 464.104 39.1306 463.697 38.7934C463.29 38.4447 462.755 38.2703 462.092 38.2703ZM471.711 37.2066C470.548 36.6021 469.967 35.6663 469.967 34.3992C469.967 33.7714 470.124 33.2018 470.438 32.6903C470.763 32.1672 471.246 31.7545 471.885 31.4522C472.536 31.1384 473.326 30.9814 474.256 30.9814C475.186 30.9814 475.971 31.1384 476.611 31.4522C477.262 31.7545 477.744 32.1672 478.058 32.6903C478.383 33.2018 478.546 33.7714 478.546 34.3992C478.546 35.0386 478.389 35.6024 478.075 36.0906C477.761 36.5672 477.343 36.9392 476.82 37.2066C477.459 37.4856 477.959 37.8925 478.319 38.4272C478.68 38.962 478.86 39.5956 478.86 40.3279C478.86 41.1184 478.657 41.8101 478.25 42.403C477.854 42.9842 477.308 43.4318 476.611 43.7457C475.913 44.0596 475.128 44.2165 474.256 44.2165C473.385 44.2165 472.6 44.0596 471.902 43.7457C471.217 43.4318 470.67 42.9842 470.263 42.403C469.868 41.8101 469.67 41.1184 469.67 40.3279C469.67 39.5956 469.851 38.962 470.211 38.4272C470.571 37.8809 471.071 37.474 471.711 37.2066ZM476.175 34.7479C476.175 34.1783 476 33.7366 475.651 33.4227C475.314 33.1088 474.849 32.9519 474.256 32.9519C473.675 32.9519 473.21 33.1088 472.861 33.4227C472.524 33.7366 472.356 34.1841 472.356 34.7654C472.356 35.2885 472.53 35.707 472.879 36.0209C473.239 36.3347 473.698 36.4917 474.256 36.4917C474.814 36.4917 475.274 36.3347 475.634 36.0209C475.994 35.6954 476.175 35.2711 476.175 34.7479ZM474.256 38.2703C473.594 38.2703 473.053 38.4389 472.635 38.776C472.228 39.1131 472.024 39.5956 472.024 40.2233C472.024 40.8046 472.222 41.2812 472.617 41.6532C473.024 42.0136 473.571 42.1937 474.256 42.1937C474.942 42.1937 475.483 42.0077 475.878 41.6358C476.273 41.2637 476.471 40.7929 476.471 40.2233C476.471 39.6072 476.268 39.1306 475.861 38.7934C475.454 38.4447 474.919 38.2703 474.256 38.2703ZM481.451 33.475V31.2256H485.653V43.9375H483.142V33.475H481.451ZM491.971 41.3742L489.931 46.2741H488.361L489.495 41.3742H491.971ZM495.178 41.1824C496.294 40.2524 497.183 39.4793 497.846 38.8632C498.508 38.2354 499.061 37.5844 499.502 36.9102C499.944 36.2359 500.165 35.5733 500.165 34.9223C500.165 34.3294 500.025 33.8644 499.746 33.5273C499.467 33.1902 499.037 33.0216 498.456 33.0216C497.875 33.0216 497.427 33.2192 497.113 33.6145C496.799 33.9981 496.637 34.5271 496.625 35.2013H494.254C494.3 33.8063 494.713 32.7484 495.492 32.0277C496.282 31.3069 497.282 30.9466 498.491 30.9466C499.816 30.9466 500.833 31.3011 501.542 32.0102C502.252 32.7077 502.606 33.6319 502.606 34.7828C502.606 35.6896 502.362 36.5556 501.874 37.381C501.386 38.2064 500.828 38.9271 500.2 39.5432C499.572 40.1477 498.752 40.8801 497.741 41.7404H502.885V43.7631H494.271V41.9496L495.178 41.1824ZM513.927 33.3355H508.277V36.3173C508.521 36.0151 508.87 35.7709 509.323 35.5849C509.777 35.3873 510.259 35.2885 510.771 35.2885C511.701 35.2885 512.462 35.4919 513.055 35.8988C513.648 36.3057 514.078 36.8288 514.345 37.4682C514.613 38.0959 514.746 38.7702 514.746 39.4909C514.746 40.8278 514.363 41.9031 513.596 42.7169C512.84 43.5306 511.759 43.9375 510.352 43.9375C509.027 43.9375 507.969 43.6062 507.179 42.9436C506.388 42.2809 505.941 41.4149 505.836 40.3454H508.207C508.312 40.8104 508.545 41.1824 508.905 41.4614C509.277 41.7404 509.748 41.8799 510.317 41.8799C511.003 41.8799 511.521 41.6648 511.869 41.2347C512.218 40.8046 512.392 40.2349 512.392 39.5258C512.392 38.8051 512.212 38.2587 511.852 37.8867C511.503 37.5031 510.986 37.3112 510.3 37.3112C509.812 37.3112 509.405 37.4333 509.079 37.6774C508.754 37.9216 508.521 38.2471 508.382 38.6539H506.045V31.1907H513.927V33.3355ZM524.155 34.3992C524.039 33.9109 523.835 33.5447 523.545 33.3006C523.266 33.0565 522.859 32.9344 522.324 32.9344C521.522 32.9344 520.929 33.2599 520.545 33.9109C520.173 34.5503 519.982 35.5966 519.97 37.0497C520.249 36.5847 520.656 36.2243 521.191 35.9686C521.725 35.7012 522.307 35.5675 522.934 35.5675C523.69 35.5675 524.358 35.7302 524.94 36.0557C525.521 36.3812 525.974 36.8579 526.3 37.4856C526.625 38.1017 526.788 38.8457 526.788 39.7176C526.788 40.543 526.619 41.2812 526.282 41.9322C525.957 42.5716 525.474 43.0714 524.835 43.4318C524.196 43.7922 523.434 43.9724 522.551 43.9724C521.342 43.9724 520.388 43.705 519.691 43.1702C519.005 42.6355 518.523 41.8915 518.244 40.9382C517.976 39.9734 517.843 38.7876 517.843 37.381C517.843 35.2536 518.209 33.6494 518.941 32.5682C519.674 31.4755 520.83 30.9291 522.411 30.9291C523.632 30.9291 524.579 31.2604 525.254 31.9231C525.928 32.5857 526.317 33.4111 526.422 34.3992H524.155ZM522.376 37.5728C521.76 37.5728 521.243 37.753 520.824 38.1134C520.406 38.4737 520.197 38.9969 520.197 39.6827C520.197 40.3686 520.388 40.9092 520.772 41.3044C521.167 41.6997 521.72 41.8973 522.429 41.8973C523.056 41.8973 523.55 41.7055 523.911 41.3219C524.283 40.9382 524.469 40.4209 524.469 39.7699C524.469 39.0957 524.289 38.5609 523.928 38.1657C523.58 37.7704 523.062 37.5728 522.376 37.5728Z" fill="black"/>
</svg>
