<svg width="1437" height="514" viewBox="0 0 1437 514" fill="none" xmlns="http://www.w3.org/2000/svg">
<path d="M1.99989 514C1.99997 480 -10.5001 448.5 42.4999 373C99.782 291.4 135.452 312.061 207.918 243.866C236.913 216.58 294.468 148.345 303.964 94.7019C311.213 53.7531 309.763 6.29506 260.472 1.92929C236.309 -2.92157 188.347 8.84175 189.797 94.7019C191.005 156.55 230.752 301.712 380.076 387.572C416.923 409.401 511.277 429.411 593.913 334.819C616.867 303.289 658.064 230.768 639.217 192.932C627.74 175.954 583.04 153.802 546.796 219.289C512.969 269.01 472.859 394.485 546.796 473.069C564.918 489.44 605.489 504 653.715 442.145C686.334 400.306 755.5 325 795.065 334.819C804.729 336.638 841.5 345.5 833.12 413.039C824.646 481.338 911.5 530.5 1059 465C1091 450.79 1172.5 409 1198.5 334.819C1231.54 240.561 1310 121.5 1436.5 94.7019" stroke="#D7010D" stroke-width="2"/>
</svg>
